<?xml version="1.0" encoding="utf-8" standalone="no"?>
<!DOCTYPE svg PUBLIC "-//W3C//DTD SVG 1.1//EN"
  "http://www.w3.org/Graphics/SVG/1.1/DTD/svg11.dtd">
<!-- Created with matplotlib (https://matplotlib.org/) -->
<svg height="360pt" version="1.1" viewBox="0 0 864 360" width="864pt" xmlns="http://www.w3.org/2000/svg" xmlns:xlink="http://www.w3.org/1999/xlink">
 <defs>
  <style type="text/css">
*{stroke-linecap:butt;stroke-linejoin:round;}
  </style>
 </defs>
 <g id="figure_1">
  <g id="patch_1">
   <path d="M 0 360 
L 864 360 
L 864 0 
L 0 0 
z
" style="fill:#ffffff;"/>
  </g>
  <g id="axes_1">
   <g id="patch_2">
    <path d="M 73.675 297.8 
L 847.2 297.8 
L 847.2 16.8 
L 73.675 16.8 
z
" style="fill:#ffffff;"/>
   </g>
   <g id="matplotlib.axis_1">
    <g id="xtick_1">
     <g id="text_1">
      <!-- $\mathdefault{10^{0}}$ -->
      <defs>
       <path d="M 12.40625 8.296875 
L 28.515625 8.296875 
L 28.515625 63.921875 
L 10.984375 60.40625 
L 10.984375 69.390625 
L 28.421875 72.90625 
L 38.28125 72.90625 
L 38.28125 8.296875 
L 54.390625 8.296875 
L 54.390625 0 
L 12.40625 0 
z
" id="DejaVuSans-49"/>
       <path d="M 31.78125 66.40625 
Q 24.171875 66.40625 20.328125 58.90625 
Q 16.5 51.421875 16.5 36.375 
Q 16.5 21.390625 20.328125 13.890625 
Q 24.171875 6.390625 31.78125 6.390625 
Q 39.453125 6.390625 43.28125 13.890625 
Q 47.125 21.390625 47.125 36.375 
Q 47.125 51.421875 43.28125 58.90625 
Q 39.453125 66.40625 31.78125 66.40625 
z
M 31.78125 74.21875 
Q 44.046875 74.21875 50.515625 64.515625 
Q 56.984375 54.828125 56.984375 36.375 
Q 56.984375 17.96875 50.515625 8.265625 
Q 44.046875 -1.421875 31.78125 -1.421875 
Q 19.53125 -1.421875 13.0625 8.265625 
Q 6.59375 17.96875 6.59375 36.375 
Q 6.59375 54.828125 13.0625 64.515625 
Q 19.53125 74.21875 31.78125 74.21875 
z
" id="DejaVuSans-48"/>
      </defs>
      <g style="fill:#262626;" transform="translate(149.009365 319.837422)scale(0.165 -0.165)">
       <use transform="translate(0 0.765625)" xlink:href="#DejaVuSans-49"/>
       <use transform="translate(63.623047 0.765625)" xlink:href="#DejaVuSans-48"/>
       <use transform="translate(128.203125 39.046875)scale(0.7)" xlink:href="#DejaVuSans-48"/>
      </g>
     </g>
    </g>
    <g id="xtick_2">
     <g id="text_2">
      <!-- $\mathdefault{10^{1}}$ -->
      <g style="fill:#262626;" transform="translate(362.838156 319.837422)scale(0.165 -0.165)">
       <use transform="translate(0 0.684375)" xlink:href="#DejaVuSans-49"/>
       <use transform="translate(63.623047 0.684375)" xlink:href="#DejaVuSans-48"/>
       <use transform="translate(128.203125 38.965625)scale(0.7)" xlink:href="#DejaVuSans-49"/>
      </g>
     </g>
    </g>
    <g id="xtick_3">
     <g id="text_3">
      <!-- $\mathdefault{10^{2}}$ -->
      <defs>
       <path d="M 19.1875 8.296875 
L 53.609375 8.296875 
L 53.609375 0 
L 7.328125 0 
L 7.328125 8.296875 
Q 12.9375 14.109375 22.625 23.890625 
Q 32.328125 33.6875 34.8125 36.53125 
Q 39.546875 41.84375 41.421875 45.53125 
Q 43.3125 49.21875 43.3125 52.78125 
Q 43.3125 58.59375 39.234375 62.25 
Q 35.15625 65.921875 28.609375 65.921875 
Q 23.96875 65.921875 18.8125 64.3125 
Q 13.671875 62.703125 7.8125 59.421875 
L 7.8125 69.390625 
Q 13.765625 71.78125 18.9375 73 
Q 24.125 74.21875 28.421875 74.21875 
Q 39.75 74.21875 46.484375 68.546875 
Q 53.21875 62.890625 53.21875 53.421875 
Q 53.21875 48.921875 51.53125 44.890625 
Q 49.859375 40.875 45.40625 35.40625 
Q 44.1875 33.984375 37.640625 27.21875 
Q 31.109375 20.453125 19.1875 8.296875 
z
" id="DejaVuSans-50"/>
      </defs>
      <g style="fill:#262626;" transform="translate(576.666946 319.837422)scale(0.165 -0.165)">
       <use transform="translate(0 0.765625)" xlink:href="#DejaVuSans-49"/>
       <use transform="translate(63.623047 0.765625)" xlink:href="#DejaVuSans-48"/>
       <use transform="translate(128.203125 39.046875)scale(0.7)" xlink:href="#DejaVuSans-50"/>
      </g>
     </g>
    </g>
    <g id="xtick_4">
     <g id="text_4">
      <!-- $\mathdefault{10^{3}}$ -->
      <defs>
       <path d="M 40.578125 39.3125 
Q 47.65625 37.796875 51.625 33 
Q 55.609375 28.21875 55.609375 21.1875 
Q 55.609375 10.40625 48.1875 4.484375 
Q 40.765625 -1.421875 27.09375 -1.421875 
Q 22.515625 -1.421875 17.65625 -0.515625 
Q 12.796875 0.390625 7.625 2.203125 
L 7.625 11.71875 
Q 11.71875 9.328125 16.59375 8.109375 
Q 21.484375 6.890625 26.8125 6.890625 
Q 36.078125 6.890625 40.9375 10.546875 
Q 45.796875 14.203125 45.796875 21.1875 
Q 45.796875 27.640625 41.28125 31.265625 
Q 36.765625 34.90625 28.71875 34.90625 
L 20.21875 34.90625 
L 20.21875 43.015625 
L 29.109375 43.015625 
Q 36.375 43.015625 40.234375 45.921875 
Q 44.09375 48.828125 44.09375 54.296875 
Q 44.09375 59.90625 40.109375 62.90625 
Q 36.140625 65.921875 28.71875 65.921875 
Q 24.65625 65.921875 20.015625 65.03125 
Q 15.375 64.15625 9.8125 62.3125 
L 9.8125 71.09375 
Q 15.4375 72.65625 20.34375 73.4375 
Q 25.25 74.21875 29.59375 74.21875 
Q 40.828125 74.21875 47.359375 69.109375 
Q 53.90625 64.015625 53.90625 55.328125 
Q 53.90625 49.265625 50.4375 45.09375 
Q 46.96875 40.921875 40.578125 39.3125 
z
" id="DejaVuSans-51"/>
      </defs>
      <g style="fill:#262626;" transform="translate(790.495737 319.837422)scale(0.165 -0.165)">
       <use transform="translate(0 0.765625)" xlink:href="#DejaVuSans-49"/>
       <use transform="translate(63.623047 0.765625)" xlink:href="#DejaVuSans-48"/>
       <use transform="translate(128.203125 39.046875)scale(0.7)" xlink:href="#DejaVuSans-51"/>
      </g>
     </g>
    </g>
    <g id="xtick_5"/>
    <g id="xtick_6"/>
    <g id="xtick_7"/>
    <g id="xtick_8"/>
    <g id="xtick_9"/>
    <g id="xtick_10"/>
    <g id="xtick_11"/>
    <g id="xtick_12"/>
    <g id="xtick_13"/>
    <g id="xtick_14"/>
    <g id="xtick_15"/>
    <g id="xtick_16"/>
    <g id="xtick_17"/>
    <g id="xtick_18"/>
    <g id="xtick_19"/>
    <g id="xtick_20"/>
    <g id="xtick_21"/>
    <g id="xtick_22"/>
    <g id="xtick_23"/>
    <g id="xtick_24"/>
    <g id="xtick_25"/>
    <g id="xtick_26"/>
    <g id="xtick_27"/>
    <g id="xtick_28"/>
    <g id="xtick_29"/>
    <g id="xtick_30"/>
    <g id="xtick_31"/>
    <g id="xtick_32"/>
    <g id="xtick_33"/>
    <g id="xtick_34"/>
    <g id="text_5">
     <!-- Runtime (seconds) -->
     <defs>
      <path d="M 44.390625 34.1875 
Q 47.5625 33.109375 50.5625 29.59375 
Q 53.5625 26.078125 56.59375 19.921875 
L 66.609375 0 
L 56 0 
L 46.6875 18.703125 
Q 43.0625 26.03125 39.671875 28.421875 
Q 36.28125 30.8125 30.421875 30.8125 
L 19.671875 30.8125 
L 19.671875 0 
L 9.8125 0 
L 9.8125 72.90625 
L 32.078125 72.90625 
Q 44.578125 72.90625 50.734375 67.671875 
Q 56.890625 62.453125 56.890625 51.90625 
Q 56.890625 45.015625 53.6875 40.46875 
Q 50.484375 35.9375 44.390625 34.1875 
z
M 19.671875 64.796875 
L 19.671875 38.921875 
L 32.078125 38.921875 
Q 39.203125 38.921875 42.84375 42.21875 
Q 46.484375 45.515625 46.484375 51.90625 
Q 46.484375 58.296875 42.84375 61.546875 
Q 39.203125 64.796875 32.078125 64.796875 
z
" id="DejaVuSans-82"/>
      <path d="M 8.5 21.578125 
L 8.5 54.6875 
L 17.484375 54.6875 
L 17.484375 21.921875 
Q 17.484375 14.15625 20.5 10.265625 
Q 23.53125 6.390625 29.59375 6.390625 
Q 36.859375 6.390625 41.078125 11.03125 
Q 45.3125 15.671875 45.3125 23.6875 
L 45.3125 54.6875 
L 54.296875 54.6875 
L 54.296875 0 
L 45.3125 0 
L 45.3125 8.40625 
Q 42.046875 3.421875 37.71875 1 
Q 33.40625 -1.421875 27.6875 -1.421875 
Q 18.265625 -1.421875 13.375 4.4375 
Q 8.5 10.296875 8.5 21.578125 
z
M 31.109375 56 
z
" id="DejaVuSans-117"/>
      <path d="M 54.890625 33.015625 
L 54.890625 0 
L 45.90625 0 
L 45.90625 32.71875 
Q 45.90625 40.484375 42.875 44.328125 
Q 39.84375 48.1875 33.796875 48.1875 
Q 26.515625 48.1875 22.3125 43.546875 
Q 18.109375 38.921875 18.109375 30.90625 
L 18.109375 0 
L 9.078125 0 
L 9.078125 54.6875 
L 18.109375 54.6875 
L 18.109375 46.1875 
Q 21.34375 51.125 25.703125 53.5625 
Q 30.078125 56 35.796875 56 
Q 45.21875 56 50.046875 50.171875 
Q 54.890625 44.34375 54.890625 33.015625 
z
" id="DejaVuSans-110"/>
      <path d="M 18.3125 70.21875 
L 18.3125 54.6875 
L 36.8125 54.6875 
L 36.8125 47.703125 
L 18.3125 47.703125 
L 18.3125 18.015625 
Q 18.3125 11.328125 20.140625 9.421875 
Q 21.96875 7.515625 27.59375 7.515625 
L 36.8125 7.515625 
L 36.8125 0 
L 27.59375 0 
Q 17.1875 0 13.234375 3.875 
Q 9.28125 7.765625 9.28125 18.015625 
L 9.28125 47.703125 
L 2.6875 47.703125 
L 2.6875 54.6875 
L 9.28125 54.6875 
L 9.28125 70.21875 
z
" id="DejaVuSans-116"/>
      <path d="M 9.421875 54.6875 
L 18.40625 54.6875 
L 18.40625 0 
L 9.421875 0 
z
M 9.421875 75.984375 
L 18.40625 75.984375 
L 18.40625 64.59375 
L 9.421875 64.59375 
z
" id="DejaVuSans-105"/>
      <path d="M 52 44.1875 
Q 55.375 50.25 60.0625 53.125 
Q 64.75 56 71.09375 56 
Q 79.640625 56 84.28125 50.015625 
Q 88.921875 44.046875 88.921875 33.015625 
L 88.921875 0 
L 79.890625 0 
L 79.890625 32.71875 
Q 79.890625 40.578125 77.09375 44.375 
Q 74.3125 48.1875 68.609375 48.1875 
Q 61.625 48.1875 57.5625 43.546875 
Q 53.515625 38.921875 53.515625 30.90625 
L 53.515625 0 
L 44.484375 0 
L 44.484375 32.71875 
Q 44.484375 40.625 41.703125 44.40625 
Q 38.921875 48.1875 33.109375 48.1875 
Q 26.21875 48.1875 22.15625 43.53125 
Q 18.109375 38.875 18.109375 30.90625 
L 18.109375 0 
L 9.078125 0 
L 9.078125 54.6875 
L 18.109375 54.6875 
L 18.109375 46.1875 
Q 21.1875 51.21875 25.484375 53.609375 
Q 29.78125 56 35.6875 56 
Q 41.65625 56 45.828125 52.96875 
Q 50 49.953125 52 44.1875 
z
" id="DejaVuSans-109"/>
      <path d="M 56.203125 29.59375 
L 56.203125 25.203125 
L 14.890625 25.203125 
Q 15.484375 15.921875 20.484375 11.0625 
Q 25.484375 6.203125 34.421875 6.203125 
Q 39.59375 6.203125 44.453125 7.46875 
Q 49.3125 8.734375 54.109375 11.28125 
L 54.109375 2.78125 
Q 49.265625 0.734375 44.1875 -0.34375 
Q 39.109375 -1.421875 33.890625 -1.421875 
Q 20.796875 -1.421875 13.15625 6.1875 
Q 5.515625 13.8125 5.515625 26.8125 
Q 5.515625 40.234375 12.765625 48.109375 
Q 20.015625 56 32.328125 56 
Q 43.359375 56 49.78125 48.890625 
Q 56.203125 41.796875 56.203125 29.59375 
z
M 47.21875 32.234375 
Q 47.125 39.59375 43.09375 43.984375 
Q 39.0625 48.390625 32.421875 48.390625 
Q 24.90625 48.390625 20.390625 44.140625 
Q 15.875 39.890625 15.1875 32.171875 
z
" id="DejaVuSans-101"/>
      <path id="DejaVuSans-32"/>
      <path d="M 31 75.875 
Q 24.46875 64.65625 21.28125 53.65625 
Q 18.109375 42.671875 18.109375 31.390625 
Q 18.109375 20.125 21.3125 9.0625 
Q 24.515625 -2 31 -13.1875 
L 23.1875 -13.1875 
Q 15.875 -1.703125 12.234375 9.375 
Q 8.59375 20.453125 8.59375 31.390625 
Q 8.59375 42.28125 12.203125 53.3125 
Q 15.828125 64.359375 23.1875 75.875 
z
" id="DejaVuSans-40"/>
      <path d="M 44.28125 53.078125 
L 44.28125 44.578125 
Q 40.484375 46.53125 36.375 47.5 
Q 32.28125 48.484375 27.875 48.484375 
Q 21.1875 48.484375 17.84375 46.4375 
Q 14.5 44.390625 14.5 40.28125 
Q 14.5 37.15625 16.890625 35.375 
Q 19.28125 33.59375 26.515625 31.984375 
L 29.59375 31.296875 
Q 39.15625 29.25 43.1875 25.515625 
Q 47.21875 21.78125 47.21875 15.09375 
Q 47.21875 7.46875 41.1875 3.015625 
Q 35.15625 -1.421875 24.609375 -1.421875 
Q 20.21875 -1.421875 15.453125 -0.5625 
Q 10.6875 0.296875 5.421875 2 
L 5.421875 11.28125 
Q 10.40625 8.6875 15.234375 7.390625 
Q 20.0625 6.109375 24.8125 6.109375 
Q 31.15625 6.109375 34.5625 8.28125 
Q 37.984375 10.453125 37.984375 14.40625 
Q 37.984375 18.0625 35.515625 20.015625 
Q 33.0625 21.96875 24.703125 23.78125 
L 21.578125 24.515625 
Q 13.234375 26.265625 9.515625 29.90625 
Q 5.8125 33.546875 5.8125 39.890625 
Q 5.8125 47.609375 11.28125 51.796875 
Q 16.75 56 26.8125 56 
Q 31.78125 56 36.171875 55.265625 
Q 40.578125 54.546875 44.28125 53.078125 
z
" id="DejaVuSans-115"/>
      <path d="M 48.78125 52.59375 
L 48.78125 44.1875 
Q 44.96875 46.296875 41.140625 47.34375 
Q 37.3125 48.390625 33.40625 48.390625 
Q 24.65625 48.390625 19.8125 42.84375 
Q 14.984375 37.3125 14.984375 27.296875 
Q 14.984375 17.28125 19.8125 11.734375 
Q 24.65625 6.203125 33.40625 6.203125 
Q 37.3125 6.203125 41.140625 7.25 
Q 44.96875 8.296875 48.78125 10.40625 
L 48.78125 2.09375 
Q 45.015625 0.34375 40.984375 -0.53125 
Q 36.96875 -1.421875 32.421875 -1.421875 
Q 20.0625 -1.421875 12.78125 6.34375 
Q 5.515625 14.109375 5.515625 27.296875 
Q 5.515625 40.671875 12.859375 48.328125 
Q 20.21875 56 33.015625 56 
Q 37.15625 56 41.109375 55.140625 
Q 45.0625 54.296875 48.78125 52.59375 
z
" id="DejaVuSans-99"/>
      <path d="M 30.609375 48.390625 
Q 23.390625 48.390625 19.1875 42.75 
Q 14.984375 37.109375 14.984375 27.296875 
Q 14.984375 17.484375 19.15625 11.84375 
Q 23.34375 6.203125 30.609375 6.203125 
Q 37.796875 6.203125 41.984375 11.859375 
Q 46.1875 17.53125 46.1875 27.296875 
Q 46.1875 37.015625 41.984375 42.703125 
Q 37.796875 48.390625 30.609375 48.390625 
z
M 30.609375 56 
Q 42.328125 56 49.015625 48.375 
Q 55.71875 40.765625 55.71875 27.296875 
Q 55.71875 13.875 49.015625 6.21875 
Q 42.328125 -1.421875 30.609375 -1.421875 
Q 18.84375 -1.421875 12.171875 6.21875 
Q 5.515625 13.875 5.515625 27.296875 
Q 5.515625 40.765625 12.171875 48.375 
Q 18.84375 56 30.609375 56 
z
" id="DejaVuSans-111"/>
      <path d="M 45.40625 46.390625 
L 45.40625 75.984375 
L 54.390625 75.984375 
L 54.390625 0 
L 45.40625 0 
L 45.40625 8.203125 
Q 42.578125 3.328125 38.25 0.953125 
Q 33.9375 -1.421875 27.875 -1.421875 
Q 17.96875 -1.421875 11.734375 6.484375 
Q 5.515625 14.40625 5.515625 27.296875 
Q 5.515625 40.1875 11.734375 48.09375 
Q 17.96875 56 27.875 56 
Q 33.9375 56 38.25 53.625 
Q 42.578125 51.265625 45.40625 46.390625 
z
M 14.796875 27.296875 
Q 14.796875 17.390625 18.875 11.75 
Q 22.953125 6.109375 30.078125 6.109375 
Q 37.203125 6.109375 41.296875 11.75 
Q 45.40625 17.390625 45.40625 27.296875 
Q 45.40625 37.203125 41.296875 42.84375 
Q 37.203125 48.484375 30.078125 48.484375 
Q 22.953125 48.484375 18.875 42.84375 
Q 14.796875 37.203125 14.796875 27.296875 
z
" id="DejaVuSans-100"/>
      <path d="M 8.015625 75.875 
L 15.828125 75.875 
Q 23.140625 64.359375 26.78125 53.3125 
Q 30.421875 42.28125 30.421875 31.390625 
Q 30.421875 20.453125 26.78125 9.375 
Q 23.140625 -1.703125 15.828125 -13.1875 
L 8.015625 -13.1875 
Q 14.5 -2 17.703125 9.0625 
Q 20.90625 20.125 20.90625 31.390625 
Q 20.90625 42.671875 17.703125 53.65625 
Q 14.5 64.65625 8.015625 75.875 
z
" id="DejaVuSans-41"/>
     </defs>
     <g style="fill:#262626;" transform="translate(375.778438 340.946094)scale(0.18 -0.18)">
      <use xlink:href="#DejaVuSans-82"/>
      <use x="69.419922" xlink:href="#DejaVuSans-117"/>
      <use x="132.798828" xlink:href="#DejaVuSans-110"/>
      <use x="196.177734" xlink:href="#DejaVuSans-116"/>
      <use x="235.386719" xlink:href="#DejaVuSans-105"/>
      <use x="263.169922" xlink:href="#DejaVuSans-109"/>
      <use x="360.582031" xlink:href="#DejaVuSans-101"/>
      <use x="422.105469" xlink:href="#DejaVuSans-32"/>
      <use x="453.892578" xlink:href="#DejaVuSans-40"/>
      <use x="492.90625" xlink:href="#DejaVuSans-115"/>
      <use x="545.005859" xlink:href="#DejaVuSans-101"/>
      <use x="606.529297" xlink:href="#DejaVuSans-99"/>
      <use x="661.509766" xlink:href="#DejaVuSans-111"/>
      <use x="722.691406" xlink:href="#DejaVuSans-110"/>
      <use x="786.070312" xlink:href="#DejaVuSans-100"/>
      <use x="849.546875" xlink:href="#DejaVuSans-115"/>
      <use x="901.646484" xlink:href="#DejaVuSans-41"/>
     </g>
    </g>
   </g>
   <g id="matplotlib.axis_2">
    <g id="ytick_1">
     <g id="text_6">
      <!-- 0 -->
      <g style="fill:#262626;" transform="translate(53.676875 304.068711)scale(0.165 -0.165)">
       <use xlink:href="#DejaVuSans-48"/>
      </g>
     </g>
    </g>
    <g id="ytick_2">
     <g id="text_7">
      <!-- 20 -->
      <g style="fill:#262626;" transform="translate(43.17875 250.544901)scale(0.165 -0.165)">
       <use xlink:href="#DejaVuSans-50"/>
       <use x="63.623047" xlink:href="#DejaVuSans-48"/>
      </g>
     </g>
    </g>
    <g id="ytick_3">
     <g id="text_8">
      <!-- 40 -->
      <defs>
       <path d="M 37.796875 64.3125 
L 12.890625 25.390625 
L 37.796875 25.390625 
z
M 35.203125 72.90625 
L 47.609375 72.90625 
L 47.609375 25.390625 
L 58.015625 25.390625 
L 58.015625 17.1875 
L 47.609375 17.1875 
L 47.609375 0 
L 37.796875 0 
L 37.796875 17.1875 
L 4.890625 17.1875 
L 4.890625 26.703125 
z
" id="DejaVuSans-52"/>
      </defs>
      <g style="fill:#262626;" transform="translate(43.17875 197.021092)scale(0.165 -0.165)">
       <use xlink:href="#DejaVuSans-52"/>
       <use x="63.623047" xlink:href="#DejaVuSans-48"/>
      </g>
     </g>
    </g>
    <g id="ytick_4">
     <g id="text_9">
      <!-- 60 -->
      <defs>
       <path d="M 33.015625 40.375 
Q 26.375 40.375 22.484375 35.828125 
Q 18.609375 31.296875 18.609375 23.390625 
Q 18.609375 15.53125 22.484375 10.953125 
Q 26.375 6.390625 33.015625 6.390625 
Q 39.65625 6.390625 43.53125 10.953125 
Q 47.40625 15.53125 47.40625 23.390625 
Q 47.40625 31.296875 43.53125 35.828125 
Q 39.65625 40.375 33.015625 40.375 
z
M 52.59375 71.296875 
L 52.59375 62.3125 
Q 48.875 64.0625 45.09375 64.984375 
Q 41.3125 65.921875 37.59375 65.921875 
Q 27.828125 65.921875 22.671875 59.328125 
Q 17.53125 52.734375 16.796875 39.40625 
Q 19.671875 43.65625 24.015625 45.921875 
Q 28.375 48.1875 33.59375 48.1875 
Q 44.578125 48.1875 50.953125 41.515625 
Q 57.328125 34.859375 57.328125 23.390625 
Q 57.328125 12.15625 50.6875 5.359375 
Q 44.046875 -1.421875 33.015625 -1.421875 
Q 20.359375 -1.421875 13.671875 8.265625 
Q 6.984375 17.96875 6.984375 36.375 
Q 6.984375 53.65625 15.1875 63.9375 
Q 23.390625 74.21875 37.203125 74.21875 
Q 40.921875 74.21875 44.703125 73.484375 
Q 48.484375 72.75 52.59375 71.296875 
z
" id="DejaVuSans-54"/>
      </defs>
      <g style="fill:#262626;" transform="translate(43.17875 143.497282)scale(0.165 -0.165)">
       <use xlink:href="#DejaVuSans-54"/>
       <use x="63.623047" xlink:href="#DejaVuSans-48"/>
      </g>
     </g>
    </g>
    <g id="ytick_5">
     <g id="text_10">
      <!-- 80 -->
      <defs>
       <path d="M 31.78125 34.625 
Q 24.75 34.625 20.71875 30.859375 
Q 16.703125 27.09375 16.703125 20.515625 
Q 16.703125 13.921875 20.71875 10.15625 
Q 24.75 6.390625 31.78125 6.390625 
Q 38.8125 6.390625 42.859375 10.171875 
Q 46.921875 13.96875 46.921875 20.515625 
Q 46.921875 27.09375 42.890625 30.859375 
Q 38.875 34.625 31.78125 34.625 
z
M 21.921875 38.8125 
Q 15.578125 40.375 12.03125 44.71875 
Q 8.5 49.078125 8.5 55.328125 
Q 8.5 64.0625 14.71875 69.140625 
Q 20.953125 74.21875 31.78125 74.21875 
Q 42.671875 74.21875 48.875 69.140625 
Q 55.078125 64.0625 55.078125 55.328125 
Q 55.078125 49.078125 51.53125 44.71875 
Q 48 40.375 41.703125 38.8125 
Q 48.828125 37.15625 52.796875 32.3125 
Q 56.78125 27.484375 56.78125 20.515625 
Q 56.78125 9.90625 50.3125 4.234375 
Q 43.84375 -1.421875 31.78125 -1.421875 
Q 19.734375 -1.421875 13.25 4.234375 
Q 6.78125 9.90625 6.78125 20.515625 
Q 6.78125 27.484375 10.78125 32.3125 
Q 14.796875 37.15625 21.921875 38.8125 
z
M 18.3125 54.390625 
Q 18.3125 48.734375 21.84375 45.5625 
Q 25.390625 42.390625 31.78125 42.390625 
Q 38.140625 42.390625 41.71875 45.5625 
Q 45.3125 48.734375 45.3125 54.390625 
Q 45.3125 60.0625 41.71875 63.234375 
Q 38.140625 66.40625 31.78125 66.40625 
Q 25.390625 66.40625 21.84375 63.234375 
Q 18.3125 60.0625 18.3125 54.390625 
z
" id="DejaVuSans-56"/>
      </defs>
      <g style="fill:#262626;" transform="translate(43.17875 89.973473)scale(0.165 -0.165)">
       <use xlink:href="#DejaVuSans-56"/>
       <use x="63.623047" xlink:href="#DejaVuSans-48"/>
      </g>
     </g>
    </g>
    <g id="ytick_6">
     <g id="text_11">
      <!-- 100 -->
      <g style="fill:#262626;" transform="translate(32.680625 36.449663)scale(0.165 -0.165)">
       <use xlink:href="#DejaVuSans-49"/>
       <use x="63.623047" xlink:href="#DejaVuSans-48"/>
       <use x="127.246094" xlink:href="#DejaVuSans-48"/>
      </g>
     </g>
    </g>
    <g id="text_12">
     <!-- % of samples decoded -->
     <defs>
      <path d="M 72.703125 32.078125 
Q 68.453125 32.078125 66.03125 28.46875 
Q 63.625 24.859375 63.625 18.40625 
Q 63.625 12.0625 66.03125 8.421875 
Q 68.453125 4.78125 72.703125 4.78125 
Q 76.859375 4.78125 79.265625 8.421875 
Q 81.6875 12.0625 81.6875 18.40625 
Q 81.6875 24.8125 79.265625 28.4375 
Q 76.859375 32.078125 72.703125 32.078125 
z
M 72.703125 38.28125 
Q 80.421875 38.28125 84.953125 32.90625 
Q 89.5 27.546875 89.5 18.40625 
Q 89.5 9.28125 84.9375 3.921875 
Q 80.375 -1.421875 72.703125 -1.421875 
Q 64.890625 -1.421875 60.34375 3.921875 
Q 55.8125 9.28125 55.8125 18.40625 
Q 55.8125 27.59375 60.375 32.9375 
Q 64.9375 38.28125 72.703125 38.28125 
z
M 22.3125 68.015625 
Q 18.109375 68.015625 15.6875 64.375 
Q 13.28125 60.75 13.28125 54.390625 
Q 13.28125 47.953125 15.671875 44.328125 
Q 18.0625 40.71875 22.3125 40.71875 
Q 26.5625 40.71875 28.96875 44.328125 
Q 31.390625 47.953125 31.390625 54.390625 
Q 31.390625 60.6875 28.953125 64.34375 
Q 26.515625 68.015625 22.3125 68.015625 
z
M 66.40625 74.21875 
L 74.21875 74.21875 
L 28.609375 -1.421875 
L 20.796875 -1.421875 
z
M 22.3125 74.21875 
Q 30.03125 74.21875 34.609375 68.875 
Q 39.203125 63.53125 39.203125 54.390625 
Q 39.203125 45.171875 34.640625 39.84375 
Q 30.078125 34.515625 22.3125 34.515625 
Q 14.546875 34.515625 10.03125 39.859375 
Q 5.515625 45.21875 5.515625 54.390625 
Q 5.515625 63.484375 10.046875 68.84375 
Q 14.59375 74.21875 22.3125 74.21875 
z
" id="DejaVuSans-37"/>
      <path d="M 37.109375 75.984375 
L 37.109375 68.5 
L 28.515625 68.5 
Q 23.6875 68.5 21.796875 66.546875 
Q 19.921875 64.59375 19.921875 59.515625 
L 19.921875 54.6875 
L 34.71875 54.6875 
L 34.71875 47.703125 
L 19.921875 47.703125 
L 19.921875 0 
L 10.890625 0 
L 10.890625 47.703125 
L 2.296875 47.703125 
L 2.296875 54.6875 
L 10.890625 54.6875 
L 10.890625 58.5 
Q 10.890625 67.625 15.140625 71.796875 
Q 19.390625 75.984375 28.609375 75.984375 
z
" id="DejaVuSans-102"/>
      <path d="M 34.28125 27.484375 
Q 23.390625 27.484375 19.1875 25 
Q 14.984375 22.515625 14.984375 16.5 
Q 14.984375 11.71875 18.140625 8.90625 
Q 21.296875 6.109375 26.703125 6.109375 
Q 34.1875 6.109375 38.703125 11.40625 
Q 43.21875 16.703125 43.21875 25.484375 
L 43.21875 27.484375 
z
M 52.203125 31.203125 
L 52.203125 0 
L 43.21875 0 
L 43.21875 8.296875 
Q 40.140625 3.328125 35.546875 0.953125 
Q 30.953125 -1.421875 24.3125 -1.421875 
Q 15.921875 -1.421875 10.953125 3.296875 
Q 6 8.015625 6 15.921875 
Q 6 25.140625 12.171875 29.828125 
Q 18.359375 34.515625 30.609375 34.515625 
L 43.21875 34.515625 
L 43.21875 35.40625 
Q 43.21875 41.609375 39.140625 45 
Q 35.0625 48.390625 27.6875 48.390625 
Q 23 48.390625 18.546875 47.265625 
Q 14.109375 46.140625 10.015625 43.890625 
L 10.015625 52.203125 
Q 14.9375 54.109375 19.578125 55.046875 
Q 24.21875 56 28.609375 56 
Q 40.484375 56 46.34375 49.84375 
Q 52.203125 43.703125 52.203125 31.203125 
z
" id="DejaVuSans-97"/>
      <path d="M 18.109375 8.203125 
L 18.109375 -20.796875 
L 9.078125 -20.796875 
L 9.078125 54.6875 
L 18.109375 54.6875 
L 18.109375 46.390625 
Q 20.953125 51.265625 25.265625 53.625 
Q 29.59375 56 35.59375 56 
Q 45.5625 56 51.78125 48.09375 
Q 58.015625 40.1875 58.015625 27.296875 
Q 58.015625 14.40625 51.78125 6.484375 
Q 45.5625 -1.421875 35.59375 -1.421875 
Q 29.59375 -1.421875 25.265625 0.953125 
Q 20.953125 3.328125 18.109375 8.203125 
z
M 48.6875 27.296875 
Q 48.6875 37.203125 44.609375 42.84375 
Q 40.53125 48.484375 33.40625 48.484375 
Q 26.265625 48.484375 22.1875 42.84375 
Q 18.109375 37.203125 18.109375 27.296875 
Q 18.109375 17.390625 22.1875 11.75 
Q 26.265625 6.109375 33.40625 6.109375 
Q 40.53125 6.109375 44.609375 11.75 
Q 48.6875 17.390625 48.6875 27.296875 
z
" id="DejaVuSans-112"/>
      <path d="M 9.421875 75.984375 
L 18.40625 75.984375 
L 18.40625 0 
L 9.421875 0 
z
" id="DejaVuSans-108"/>
     </defs>
     <g style="fill:#262626;" transform="translate(24.937188 259.189844)rotate(-90)scale(0.18 -0.18)">
      <use xlink:href="#DejaVuSans-37"/>
      <use x="95.019531" xlink:href="#DejaVuSans-32"/>
      <use x="126.806641" xlink:href="#DejaVuSans-111"/>
      <use x="187.988281" xlink:href="#DejaVuSans-102"/>
      <use x="223.193359" xlink:href="#DejaVuSans-32"/>
      <use x="254.980469" xlink:href="#DejaVuSans-115"/>
      <use x="307.080078" xlink:href="#DejaVuSans-97"/>
      <use x="368.359375" xlink:href="#DejaVuSans-109"/>
      <use x="465.771484" xlink:href="#DejaVuSans-112"/>
      <use x="529.248047" xlink:href="#DejaVuSans-108"/>
      <use x="557.03125" xlink:href="#DejaVuSans-101"/>
      <use x="618.554688" xlink:href="#DejaVuSans-115"/>
      <use x="670.654297" xlink:href="#DejaVuSans-32"/>
      <use x="702.441406" xlink:href="#DejaVuSans-100"/>
      <use x="765.917969" xlink:href="#DejaVuSans-101"/>
      <use x="827.441406" xlink:href="#DejaVuSans-99"/>
      <use x="882.421875" xlink:href="#DejaVuSans-111"/>
      <use x="943.603516" xlink:href="#DejaVuSans-100"/>
      <use x="1007.080078" xlink:href="#DejaVuSans-101"/>
      <use x="1068.603516" xlink:href="#DejaVuSans-100"/>
     </g>
    </g>
   </g>
   <g id="line2d_1">
    <path clip-path="url(#pafe544f7c5)" d="M 86.22796 297.8 
L 111.328381 297.8 
L 134.937749 297.8 
L 156.790112 297.8 
L 180.460595 297.8 
L 203.021711 190.752381 
L 226.258726 137.228571 
L 248.80594 56.942857 
L 271.834724 56.942857 
L 294.78642 30.180952 
L 317.520158 30.180952 
L 340.444736 30.180952 
L 363.298032 30.180952 
L 386.040105 30.180952 
L 408.869486 30.180952 
L 431.710314 30.180952 
L 454.564558 30.180952 
L 477.409491 30.180952 
L 500.251032 30.180952 
L 523.085168 30.180952 
L 545.906369 30.180952 
L 568.736622 30.180952 
L 591.566913 30.180952 
L 614.390425 30.180952 
L 637.217302 30.180952 
L 660.046901 30.180952 
L 682.876452 30.180952 
L 705.706432 30.180952 
L 728.53368 30.180952 
L 751.359114 30.180952 
L 774.187604 30.180952 
L 797.014272 30.180952 
L 819.841959 30.180952 
L 842.669118 30.180952 
" style="fill:none;stroke:#1f77b4;stroke-linecap:round;stroke-width:1.5;"/>
    <defs>
     <path d="M 0 3 
C 0.795609 3 1.55874 2.683901 2.12132 2.12132 
C 2.683901 1.55874 3 0.795609 3 0 
C 3 -0.795609 2.683901 -1.55874 2.12132 -2.12132 
C 1.55874 -2.683901 0.795609 -3 0 -3 
C -0.795609 -3 -1.55874 -2.683901 -2.12132 -2.12132 
C -2.683901 -1.55874 -3 -0.795609 -3 0 
C -3 0.795609 -2.683901 1.55874 -2.12132 2.12132 
C -1.55874 2.683901 -0.795609 3 0 3 
z
" id="m20ffc2f2f1" style="stroke:#1f77b4;"/>
    </defs>
    <g clip-path="url(#pafe544f7c5)">
     <use style="fill:#1f77b4;stroke:#1f77b4;" x="86.22796" xlink:href="#m20ffc2f2f1" y="297.8"/>
     <use style="fill:#1f77b4;stroke:#1f77b4;" x="111.328381" xlink:href="#m20ffc2f2f1" y="297.8"/>
     <use style="fill:#1f77b4;stroke:#1f77b4;" x="134.937749" xlink:href="#m20ffc2f2f1" y="297.8"/>
     <use style="fill:#1f77b4;stroke:#1f77b4;" x="156.790112" xlink:href="#m20ffc2f2f1" y="297.8"/>
     <use style="fill:#1f77b4;stroke:#1f77b4;" x="180.460595" xlink:href="#m20ffc2f2f1" y="297.8"/>
     <use style="fill:#1f77b4;stroke:#1f77b4;" x="203.021711" xlink:href="#m20ffc2f2f1" y="190.752381"/>
     <use style="fill:#1f77b4;stroke:#1f77b4;" x="226.258726" xlink:href="#m20ffc2f2f1" y="137.228571"/>
     <use style="fill:#1f77b4;stroke:#1f77b4;" x="248.80594" xlink:href="#m20ffc2f2f1" y="56.942857"/>
     <use style="fill:#1f77b4;stroke:#1f77b4;" x="271.834724" xlink:href="#m20ffc2f2f1" y="56.942857"/>
     <use style="fill:#1f77b4;stroke:#1f77b4;" x="294.78642" xlink:href="#m20ffc2f2f1" y="30.180952"/>
     <use style="fill:#1f77b4;stroke:#1f77b4;" x="317.520158" xlink:href="#m20ffc2f2f1" y="30.180952"/>
     <use style="fill:#1f77b4;stroke:#1f77b4;" x="340.444736" xlink:href="#m20ffc2f2f1" y="30.180952"/>
     <use style="fill:#1f77b4;stroke:#1f77b4;" x="363.298032" xlink:href="#m20ffc2f2f1" y="30.180952"/>
     <use style="fill:#1f77b4;stroke:#1f77b4;" x="386.040105" xlink:href="#m20ffc2f2f1" y="30.180952"/>
     <use style="fill:#1f77b4;stroke:#1f77b4;" x="408.869486" xlink:href="#m20ffc2f2f1" y="30.180952"/>
     <use style="fill:#1f77b4;stroke:#1f77b4;" x="431.710314" xlink:href="#m20ffc2f2f1" y="30.180952"/>
     <use style="fill:#1f77b4;stroke:#1f77b4;" x="454.564558" xlink:href="#m20ffc2f2f1" y="30.180952"/>
     <use style="fill:#1f77b4;stroke:#1f77b4;" x="477.409491" xlink:href="#m20ffc2f2f1" y="30.180952"/>
     <use style="fill:#1f77b4;stroke:#1f77b4;" x="500.251032" xlink:href="#m20ffc2f2f1" y="30.180952"/>
     <use style="fill:#1f77b4;stroke:#1f77b4;" x="523.085168" xlink:href="#m20ffc2f2f1" y="30.180952"/>
     <use style="fill:#1f77b4;stroke:#1f77b4;" x="545.906369" xlink:href="#m20ffc2f2f1" y="30.180952"/>
     <use style="fill:#1f77b4;stroke:#1f77b4;" x="568.736622" xlink:href="#m20ffc2f2f1" y="30.180952"/>
     <use style="fill:#1f77b4;stroke:#1f77b4;" x="591.566913" xlink:href="#m20ffc2f2f1" y="30.180952"/>
     <use style="fill:#1f77b4;stroke:#1f77b4;" x="614.390425" xlink:href="#m20ffc2f2f1" y="30.180952"/>
     <use style="fill:#1f77b4;stroke:#1f77b4;" x="637.217302" xlink:href="#m20ffc2f2f1" y="30.180952"/>
     <use style="fill:#1f77b4;stroke:#1f77b4;" x="660.046901" xlink:href="#m20ffc2f2f1" y="30.180952"/>
     <use style="fill:#1f77b4;stroke:#1f77b4;" x="682.876452" xlink:href="#m20ffc2f2f1" y="30.180952"/>
     <use style="fill:#1f77b4;stroke:#1f77b4;" x="705.706432" xlink:href="#m20ffc2f2f1" y="30.180952"/>
     <use style="fill:#1f77b4;stroke:#1f77b4;" x="728.53368" xlink:href="#m20ffc2f2f1" y="30.180952"/>
     <use style="fill:#1f77b4;stroke:#1f77b4;" x="751.359114" xlink:href="#m20ffc2f2f1" y="30.180952"/>
     <use style="fill:#1f77b4;stroke:#1f77b4;" x="774.187604" xlink:href="#m20ffc2f2f1" y="30.180952"/>
     <use style="fill:#1f77b4;stroke:#1f77b4;" x="797.014272" xlink:href="#m20ffc2f2f1" y="30.180952"/>
     <use style="fill:#1f77b4;stroke:#1f77b4;" x="819.841959" xlink:href="#m20ffc2f2f1" y="30.180952"/>
     <use style="fill:#1f77b4;stroke:#1f77b4;" x="842.669118" xlink:href="#m20ffc2f2f1" y="30.180952"/>
    </g>
   </g>
   <g id="line2d_2">
    <path clip-path="url(#pafe544f7c5)" d="M 86.22796 297.8 
L 111.328381 297.8 
L 134.937749 297.8 
L 156.790112 297.8 
L 180.460595 297.8 
L 203.021711 271.038095 
L 226.258726 110.466667 
L 248.80594 83.704762 
L 271.834724 30.180952 
L 294.78642 30.180952 
L 317.520158 30.180952 
L 340.444736 30.180952 
L 363.298032 30.180952 
L 386.040105 30.180952 
L 408.869486 30.180952 
L 431.710314 30.180952 
L 454.564558 30.180952 
L 477.409491 30.180952 
L 500.251032 30.180952 
L 523.085168 30.180952 
L 545.906369 30.180952 
L 568.736622 30.180952 
L 591.566913 30.180952 
L 614.390425 30.180952 
L 637.217302 30.180952 
L 660.046901 30.180952 
L 682.876452 30.180952 
L 705.706432 30.180952 
L 728.53368 30.180952 
L 751.359114 30.180952 
L 774.187604 30.180952 
L 797.014272 30.180952 
L 819.841959 30.180952 
L 842.669118 30.180952 
" style="fill:none;stroke:#669fce;stroke-linecap:round;stroke-width:1.5;"/>
    <defs>
     <path d="M 0 3 
C 0.795609 3 1.55874 2.683901 2.12132 2.12132 
C 2.683901 1.55874 3 0.795609 3 0 
C 3 -0.795609 2.683901 -1.55874 2.12132 -2.12132 
C 1.55874 -2.683901 0.795609 -3 0 -3 
C -0.795609 -3 -1.55874 -2.683901 -2.12132 -2.12132 
C -2.683901 -1.55874 -3 -0.795609 -3 0 
C -3 0.795609 -2.683901 1.55874 -2.12132 2.12132 
C -1.55874 2.683901 -0.795609 3 0 3 
z
" id="m770e353c14" style="stroke:#669fce;"/>
    </defs>
    <g clip-path="url(#pafe544f7c5)">
     <use style="fill:#669fce;stroke:#669fce;" x="86.22796" xlink:href="#m770e353c14" y="297.8"/>
     <use style="fill:#669fce;stroke:#669fce;" x="111.328381" xlink:href="#m770e353c14" y="297.8"/>
     <use style="fill:#669fce;stroke:#669fce;" x="134.937749" xlink:href="#m770e353c14" y="297.8"/>
     <use style="fill:#669fce;stroke:#669fce;" x="156.790112" xlink:href="#m770e353c14" y="297.8"/>
     <use style="fill:#669fce;stroke:#669fce;" x="180.460595" xlink:href="#m770e353c14" y="297.8"/>
     <use style="fill:#669fce;stroke:#669fce;" x="203.021711" xlink:href="#m770e353c14" y="271.038095"/>
     <use style="fill:#669fce;stroke:#669fce;" x="226.258726" xlink:href="#m770e353c14" y="110.466667"/>
     <use style="fill:#669fce;stroke:#669fce;" x="248.80594" xlink:href="#m770e353c14" y="83.704762"/>
     <use style="fill:#669fce;stroke:#669fce;" x="271.834724" xlink:href="#m770e353c14" y="30.180952"/>
     <use style="fill:#669fce;stroke:#669fce;" x="294.78642" xlink:href="#m770e353c14" y="30.180952"/>
     <use style="fill:#669fce;stroke:#669fce;" x="317.520158" xlink:href="#m770e353c14" y="30.180952"/>
     <use style="fill:#669fce;stroke:#669fce;" x="340.444736" xlink:href="#m770e353c14" y="30.180952"/>
     <use style="fill:#669fce;stroke:#669fce;" x="363.298032" xlink:href="#m770e353c14" y="30.180952"/>
     <use style="fill:#669fce;stroke:#669fce;" x="386.040105" xlink:href="#m770e353c14" y="30.180952"/>
     <use style="fill:#669fce;stroke:#669fce;" x="408.869486" xlink:href="#m770e353c14" y="30.180952"/>
     <use style="fill:#669fce;stroke:#669fce;" x="431.710314" xlink:href="#m770e353c14" y="30.180952"/>
     <use style="fill:#669fce;stroke:#669fce;" x="454.564558" xlink:href="#m770e353c14" y="30.180952"/>
     <use style="fill:#669fce;stroke:#669fce;" x="477.409491" xlink:href="#m770e353c14" y="30.180952"/>
     <use style="fill:#669fce;stroke:#669fce;" x="500.251032" xlink:href="#m770e353c14" y="30.180952"/>
     <use style="fill:#669fce;stroke:#669fce;" x="523.085168" xlink:href="#m770e353c14" y="30.180952"/>
     <use style="fill:#669fce;stroke:#669fce;" x="545.906369" xlink:href="#m770e353c14" y="30.180952"/>
     <use style="fill:#669fce;stroke:#669fce;" x="568.736622" xlink:href="#m770e353c14" y="30.180952"/>
     <use style="fill:#669fce;stroke:#669fce;" x="591.566913" xlink:href="#m770e353c14" y="30.180952"/>
     <use style="fill:#669fce;stroke:#669fce;" x="614.390425" xlink:href="#m770e353c14" y="30.180952"/>
     <use style="fill:#669fce;stroke:#669fce;" x="637.217302" xlink:href="#m770e353c14" y="30.180952"/>
     <use style="fill:#669fce;stroke:#669fce;" x="660.046901" xlink:href="#m770e353c14" y="30.180952"/>
     <use style="fill:#669fce;stroke:#669fce;" x="682.876452" xlink:href="#m770e353c14" y="30.180952"/>
     <use style="fill:#669fce;stroke:#669fce;" x="705.706432" xlink:href="#m770e353c14" y="30.180952"/>
     <use style="fill:#669fce;stroke:#669fce;" x="728.53368" xlink:href="#m770e353c14" y="30.180952"/>
     <use style="fill:#669fce;stroke:#669fce;" x="751.359114" xlink:href="#m770e353c14" y="30.180952"/>
     <use style="fill:#669fce;stroke:#669fce;" x="774.187604" xlink:href="#m770e353c14" y="30.180952"/>
     <use style="fill:#669fce;stroke:#669fce;" x="797.014272" xlink:href="#m770e353c14" y="30.180952"/>
     <use style="fill:#669fce;stroke:#669fce;" x="819.841959" xlink:href="#m770e353c14" y="30.180952"/>
     <use style="fill:#669fce;stroke:#669fce;" x="842.669118" xlink:href="#m770e353c14" y="30.180952"/>
    </g>
   </g>
   <g id="line2d_3">
    <path clip-path="url(#pafe544f7c5)" d="M 86.22796 297.8 
L 111.328381 297.8 
L 134.937749 297.8 
L 156.790112 297.8 
L 180.460595 271.038095 
L 203.021711 190.752381 
L 226.258726 110.466667 
L 248.80594 56.942857 
L 271.834724 30.180952 
L 294.78642 30.180952 
L 317.520158 30.180952 
L 340.444736 30.180952 
L 363.298032 30.180952 
L 386.040105 30.180952 
L 408.869486 30.180952 
L 431.710314 30.180952 
L 454.564558 30.180952 
L 477.409491 30.180952 
L 500.251032 30.180952 
L 523.085168 30.180952 
L 545.906369 30.180952 
L 568.736622 30.180952 
L 591.566913 30.180952 
L 614.390425 30.180952 
L 637.217302 30.180952 
L 660.046901 30.180952 
L 682.876452 30.180952 
L 705.706432 30.180952 
L 728.53368 30.180952 
L 751.359114 30.180952 
L 774.187604 30.180952 
L 797.014272 30.180952 
L 819.841959 30.180952 
L 842.669118 30.180952 
" style="fill:none;stroke:#aec7e8;stroke-linecap:round;stroke-width:1.5;"/>
    <defs>
     <path d="M 0 3 
C 0.795609 3 1.55874 2.683901 2.12132 2.12132 
C 2.683901 1.55874 3 0.795609 3 0 
C 3 -0.795609 2.683901 -1.55874 2.12132 -2.12132 
C 1.55874 -2.683901 0.795609 -3 0 -3 
C -0.795609 -3 -1.55874 -2.683901 -2.12132 -2.12132 
C -2.683901 -1.55874 -3 -0.795609 -3 0 
C -3 0.795609 -2.683901 1.55874 -2.12132 2.12132 
C -1.55874 2.683901 -0.795609 3 0 3 
z
" id="md497eda596" style="stroke:#aec7e8;"/>
    </defs>
    <g clip-path="url(#pafe544f7c5)">
     <use style="fill:#aec7e8;stroke:#aec7e8;" x="86.22796" xlink:href="#md497eda596" y="297.8"/>
     <use style="fill:#aec7e8;stroke:#aec7e8;" x="111.328381" xlink:href="#md497eda596" y="297.8"/>
     <use style="fill:#aec7e8;stroke:#aec7e8;" x="134.937749" xlink:href="#md497eda596" y="297.8"/>
     <use style="fill:#aec7e8;stroke:#aec7e8;" x="156.790112" xlink:href="#md497eda596" y="297.8"/>
     <use style="fill:#aec7e8;stroke:#aec7e8;" x="180.460595" xlink:href="#md497eda596" y="271.038095"/>
     <use style="fill:#aec7e8;stroke:#aec7e8;" x="203.021711" xlink:href="#md497eda596" y="190.752381"/>
     <use style="fill:#aec7e8;stroke:#aec7e8;" x="226.258726" xlink:href="#md497eda596" y="110.466667"/>
     <use style="fill:#aec7e8;stroke:#aec7e8;" x="248.80594" xlink:href="#md497eda596" y="56.942857"/>
     <use style="fill:#aec7e8;stroke:#aec7e8;" x="271.834724" xlink:href="#md497eda596" y="30.180952"/>
     <use style="fill:#aec7e8;stroke:#aec7e8;" x="294.78642" xlink:href="#md497eda596" y="30.180952"/>
     <use style="fill:#aec7e8;stroke:#aec7e8;" x="317.520158" xlink:href="#md497eda596" y="30.180952"/>
     <use style="fill:#aec7e8;stroke:#aec7e8;" x="340.444736" xlink:href="#md497eda596" y="30.180952"/>
     <use style="fill:#aec7e8;stroke:#aec7e8;" x="363.298032" xlink:href="#md497eda596" y="30.180952"/>
     <use style="fill:#aec7e8;stroke:#aec7e8;" x="386.040105" xlink:href="#md497eda596" y="30.180952"/>
     <use style="fill:#aec7e8;stroke:#aec7e8;" x="408.869486" xlink:href="#md497eda596" y="30.180952"/>
     <use style="fill:#aec7e8;stroke:#aec7e8;" x="431.710314" xlink:href="#md497eda596" y="30.180952"/>
     <use style="fill:#aec7e8;stroke:#aec7e8;" x="454.564558" xlink:href="#md497eda596" y="30.180952"/>
     <use style="fill:#aec7e8;stroke:#aec7e8;" x="477.409491" xlink:href="#md497eda596" y="30.180952"/>
     <use style="fill:#aec7e8;stroke:#aec7e8;" x="500.251032" xlink:href="#md497eda596" y="30.180952"/>
     <use style="fill:#aec7e8;stroke:#aec7e8;" x="523.085168" xlink:href="#md497eda596" y="30.180952"/>
     <use style="fill:#aec7e8;stroke:#aec7e8;" x="545.906369" xlink:href="#md497eda596" y="30.180952"/>
     <use style="fill:#aec7e8;stroke:#aec7e8;" x="568.736622" xlink:href="#md497eda596" y="30.180952"/>
     <use style="fill:#aec7e8;stroke:#aec7e8;" x="591.566913" xlink:href="#md497eda596" y="30.180952"/>
     <use style="fill:#aec7e8;stroke:#aec7e8;" x="614.390425" xlink:href="#md497eda596" y="30.180952"/>
     <use style="fill:#aec7e8;stroke:#aec7e8;" x="637.217302" xlink:href="#md497eda596" y="30.180952"/>
     <use style="fill:#aec7e8;stroke:#aec7e8;" x="660.046901" xlink:href="#md497eda596" y="30.180952"/>
     <use style="fill:#aec7e8;stroke:#aec7e8;" x="682.876452" xlink:href="#md497eda596" y="30.180952"/>
     <use style="fill:#aec7e8;stroke:#aec7e8;" x="705.706432" xlink:href="#md497eda596" y="30.180952"/>
     <use style="fill:#aec7e8;stroke:#aec7e8;" x="728.53368" xlink:href="#md497eda596" y="30.180952"/>
     <use style="fill:#aec7e8;stroke:#aec7e8;" x="751.359114" xlink:href="#md497eda596" y="30.180952"/>
     <use style="fill:#aec7e8;stroke:#aec7e8;" x="774.187604" xlink:href="#md497eda596" y="30.180952"/>
     <use style="fill:#aec7e8;stroke:#aec7e8;" x="797.014272" xlink:href="#md497eda596" y="30.180952"/>
     <use style="fill:#aec7e8;stroke:#aec7e8;" x="819.841959" xlink:href="#md497eda596" y="30.180952"/>
     <use style="fill:#aec7e8;stroke:#aec7e8;" x="842.669118" xlink:href="#md497eda596" y="30.180952"/>
    </g>
   </g>
   <g id="line2d_4">
    <path clip-path="url(#pafe544f7c5)" d="M 86.22796 297.8 
L 111.328381 297.8 
L 134.937749 297.8 
L 156.790112 297.8 
L 180.460595 297.8 
L 203.021711 297.8 
L 226.258726 271.038095 
L 248.80594 217.514286 
L 271.834724 137.228571 
L 294.78642 110.466667 
L 317.520158 56.942857 
L 340.444736 30.180952 
L 363.298032 30.180952 
L 386.040105 30.180952 
L 408.869486 30.180952 
L 431.710314 30.180952 
L 454.564558 30.180952 
L 477.409491 30.180952 
L 500.251032 30.180952 
L 523.085168 30.180952 
L 545.906369 30.180952 
L 568.736622 30.180952 
L 591.566913 30.180952 
L 614.390425 30.180952 
L 637.217302 30.180952 
L 660.046901 30.180952 
L 682.876452 30.180952 
L 705.706432 30.180952 
L 728.53368 30.180952 
L 751.359114 30.180952 
L 774.187604 30.180952 
L 797.014272 30.180952 
L 819.841959 30.180952 
L 842.669118 30.180952 
" style="fill:none;stroke:#ff7f0e;stroke-linecap:round;stroke-width:1.5;"/>
    <defs>
     <path d="M 0 3 
C 0.795609 3 1.55874 2.683901 2.12132 2.12132 
C 2.683901 1.55874 3 0.795609 3 0 
C 3 -0.795609 2.683901 -1.55874 2.12132 -2.12132 
C 1.55874 -2.683901 0.795609 -3 0 -3 
C -0.795609 -3 -1.55874 -2.683901 -2.12132 -2.12132 
C -2.683901 -1.55874 -3 -0.795609 -3 0 
C -3 0.795609 -2.683901 1.55874 -2.12132 2.12132 
C -1.55874 2.683901 -0.795609 3 0 3 
z
" id="m6ca6487bad" style="stroke:#ff7f0e;"/>
    </defs>
    <g clip-path="url(#pafe544f7c5)">
     <use style="fill:#ff7f0e;stroke:#ff7f0e;" x="86.22796" xlink:href="#m6ca6487bad" y="297.8"/>
     <use style="fill:#ff7f0e;stroke:#ff7f0e;" x="111.328381" xlink:href="#m6ca6487bad" y="297.8"/>
     <use style="fill:#ff7f0e;stroke:#ff7f0e;" x="134.937749" xlink:href="#m6ca6487bad" y="297.8"/>
     <use style="fill:#ff7f0e;stroke:#ff7f0e;" x="156.790112" xlink:href="#m6ca6487bad" y="297.8"/>
     <use style="fill:#ff7f0e;stroke:#ff7f0e;" x="180.460595" xlink:href="#m6ca6487bad" y="297.8"/>
     <use style="fill:#ff7f0e;stroke:#ff7f0e;" x="203.021711" xlink:href="#m6ca6487bad" y="297.8"/>
     <use style="fill:#ff7f0e;stroke:#ff7f0e;" x="226.258726" xlink:href="#m6ca6487bad" y="271.038095"/>
     <use style="fill:#ff7f0e;stroke:#ff7f0e;" x="248.80594" xlink:href="#m6ca6487bad" y="217.514286"/>
     <use style="fill:#ff7f0e;stroke:#ff7f0e;" x="271.834724" xlink:href="#m6ca6487bad" y="137.228571"/>
     <use style="fill:#ff7f0e;stroke:#ff7f0e;" x="294.78642" xlink:href="#m6ca6487bad" y="110.466667"/>
     <use style="fill:#ff7f0e;stroke:#ff7f0e;" x="317.520158" xlink:href="#m6ca6487bad" y="56.942857"/>
     <use style="fill:#ff7f0e;stroke:#ff7f0e;" x="340.444736" xlink:href="#m6ca6487bad" y="30.180952"/>
     <use style="fill:#ff7f0e;stroke:#ff7f0e;" x="363.298032" xlink:href="#m6ca6487bad" y="30.180952"/>
     <use style="fill:#ff7f0e;stroke:#ff7f0e;" x="386.040105" xlink:href="#m6ca6487bad" y="30.180952"/>
     <use style="fill:#ff7f0e;stroke:#ff7f0e;" x="408.869486" xlink:href="#m6ca6487bad" y="30.180952"/>
     <use style="fill:#ff7f0e;stroke:#ff7f0e;" x="431.710314" xlink:href="#m6ca6487bad" y="30.180952"/>
     <use style="fill:#ff7f0e;stroke:#ff7f0e;" x="454.564558" xlink:href="#m6ca6487bad" y="30.180952"/>
     <use style="fill:#ff7f0e;stroke:#ff7f0e;" x="477.409491" xlink:href="#m6ca6487bad" y="30.180952"/>
     <use style="fill:#ff7f0e;stroke:#ff7f0e;" x="500.251032" xlink:href="#m6ca6487bad" y="30.180952"/>
     <use style="fill:#ff7f0e;stroke:#ff7f0e;" x="523.085168" xlink:href="#m6ca6487bad" y="30.180952"/>
     <use style="fill:#ff7f0e;stroke:#ff7f0e;" x="545.906369" xlink:href="#m6ca6487bad" y="30.180952"/>
     <use style="fill:#ff7f0e;stroke:#ff7f0e;" x="568.736622" xlink:href="#m6ca6487bad" y="30.180952"/>
     <use style="fill:#ff7f0e;stroke:#ff7f0e;" x="591.566913" xlink:href="#m6ca6487bad" y="30.180952"/>
     <use style="fill:#ff7f0e;stroke:#ff7f0e;" x="614.390425" xlink:href="#m6ca6487bad" y="30.180952"/>
     <use style="fill:#ff7f0e;stroke:#ff7f0e;" x="637.217302" xlink:href="#m6ca6487bad" y="30.180952"/>
     <use style="fill:#ff7f0e;stroke:#ff7f0e;" x="660.046901" xlink:href="#m6ca6487bad" y="30.180952"/>
     <use style="fill:#ff7f0e;stroke:#ff7f0e;" x="682.876452" xlink:href="#m6ca6487bad" y="30.180952"/>
     <use style="fill:#ff7f0e;stroke:#ff7f0e;" x="705.706432" xlink:href="#m6ca6487bad" y="30.180952"/>
     <use style="fill:#ff7f0e;stroke:#ff7f0e;" x="728.53368" xlink:href="#m6ca6487bad" y="30.180952"/>
     <use style="fill:#ff7f0e;stroke:#ff7f0e;" x="751.359114" xlink:href="#m6ca6487bad" y="30.180952"/>
     <use style="fill:#ff7f0e;stroke:#ff7f0e;" x="774.187604" xlink:href="#m6ca6487bad" y="30.180952"/>
     <use style="fill:#ff7f0e;stroke:#ff7f0e;" x="797.014272" xlink:href="#m6ca6487bad" y="30.180952"/>
     <use style="fill:#ff7f0e;stroke:#ff7f0e;" x="819.841959" xlink:href="#m6ca6487bad" y="30.180952"/>
     <use style="fill:#ff7f0e;stroke:#ff7f0e;" x="842.669118" xlink:href="#m6ca6487bad" y="30.180952"/>
    </g>
   </g>
   <g id="line2d_5">
    <path clip-path="url(#pafe544f7c5)" d="M 86.22796 297.8 
L 111.328381 297.8 
L 134.937749 297.8 
L 156.790112 297.8 
L 180.460595 297.8 
L 203.021711 297.8 
L 226.258726 244.27619 
L 248.80594 244.27619 
L 271.834724 110.466667 
L 294.78642 56.942857 
L 317.520158 30.180952 
L 340.444736 30.180952 
L 363.298032 30.180952 
L 386.040105 30.180952 
L 408.869486 30.180952 
L 431.710314 30.180952 
L 454.564558 30.180952 
L 477.409491 30.180952 
L 500.251032 30.180952 
L 523.085168 30.180952 
L 545.906369 30.180952 
L 568.736622 30.180952 
L 591.566913 30.180952 
L 614.390425 30.180952 
L 637.217302 30.180952 
L 660.046901 30.180952 
L 682.876452 30.180952 
L 705.706432 30.180952 
L 728.53368 30.180952 
L 751.359114 30.180952 
L 774.187604 30.180952 
L 797.014272 30.180952 
L 819.841959 30.180952 
L 842.669118 30.180952 
" style="fill:none;stroke:#ff9d43;stroke-linecap:round;stroke-width:1.5;"/>
    <defs>
     <path d="M 0 3 
C 0.795609 3 1.55874 2.683901 2.12132 2.12132 
C 2.683901 1.55874 3 0.795609 3 0 
C 3 -0.795609 2.683901 -1.55874 2.12132 -2.12132 
C 1.55874 -2.683901 0.795609 -3 0 -3 
C -0.795609 -3 -1.55874 -2.683901 -2.12132 -2.12132 
C -2.683901 -1.55874 -3 -0.795609 -3 0 
C -3 0.795609 -2.683901 1.55874 -2.12132 2.12132 
C -1.55874 2.683901 -0.795609 3 0 3 
z
" id="mfc4b8bac72" style="stroke:#ff9d43;"/>
    </defs>
    <g clip-path="url(#pafe544f7c5)">
     <use style="fill:#ff9d43;stroke:#ff9d43;" x="86.22796" xlink:href="#mfc4b8bac72" y="297.8"/>
     <use style="fill:#ff9d43;stroke:#ff9d43;" x="111.328381" xlink:href="#mfc4b8bac72" y="297.8"/>
     <use style="fill:#ff9d43;stroke:#ff9d43;" x="134.937749" xlink:href="#mfc4b8bac72" y="297.8"/>
     <use style="fill:#ff9d43;stroke:#ff9d43;" x="156.790112" xlink:href="#mfc4b8bac72" y="297.8"/>
     <use style="fill:#ff9d43;stroke:#ff9d43;" x="180.460595" xlink:href="#mfc4b8bac72" y="297.8"/>
     <use style="fill:#ff9d43;stroke:#ff9d43;" x="203.021711" xlink:href="#mfc4b8bac72" y="297.8"/>
     <use style="fill:#ff9d43;stroke:#ff9d43;" x="226.258726" xlink:href="#mfc4b8bac72" y="244.27619"/>
     <use style="fill:#ff9d43;stroke:#ff9d43;" x="248.80594" xlink:href="#mfc4b8bac72" y="244.27619"/>
     <use style="fill:#ff9d43;stroke:#ff9d43;" x="271.834724" xlink:href="#mfc4b8bac72" y="110.466667"/>
     <use style="fill:#ff9d43;stroke:#ff9d43;" x="294.78642" xlink:href="#mfc4b8bac72" y="56.942857"/>
     <use style="fill:#ff9d43;stroke:#ff9d43;" x="317.520158" xlink:href="#mfc4b8bac72" y="30.180952"/>
     <use style="fill:#ff9d43;stroke:#ff9d43;" x="340.444736" xlink:href="#mfc4b8bac72" y="30.180952"/>
     <use style="fill:#ff9d43;stroke:#ff9d43;" x="363.298032" xlink:href="#mfc4b8bac72" y="30.180952"/>
     <use style="fill:#ff9d43;stroke:#ff9d43;" x="386.040105" xlink:href="#mfc4b8bac72" y="30.180952"/>
     <use style="fill:#ff9d43;stroke:#ff9d43;" x="408.869486" xlink:href="#mfc4b8bac72" y="30.180952"/>
     <use style="fill:#ff9d43;stroke:#ff9d43;" x="431.710314" xlink:href="#mfc4b8bac72" y="30.180952"/>
     <use style="fill:#ff9d43;stroke:#ff9d43;" x="454.564558" xlink:href="#mfc4b8bac72" y="30.180952"/>
     <use style="fill:#ff9d43;stroke:#ff9d43;" x="477.409491" xlink:href="#mfc4b8bac72" y="30.180952"/>
     <use style="fill:#ff9d43;stroke:#ff9d43;" x="500.251032" xlink:href="#mfc4b8bac72" y="30.180952"/>
     <use style="fill:#ff9d43;stroke:#ff9d43;" x="523.085168" xlink:href="#mfc4b8bac72" y="30.180952"/>
     <use style="fill:#ff9d43;stroke:#ff9d43;" x="545.906369" xlink:href="#mfc4b8bac72" y="30.180952"/>
     <use style="fill:#ff9d43;stroke:#ff9d43;" x="568.736622" xlink:href="#mfc4b8bac72" y="30.180952"/>
     <use style="fill:#ff9d43;stroke:#ff9d43;" x="591.566913" xlink:href="#mfc4b8bac72" y="30.180952"/>
     <use style="fill:#ff9d43;stroke:#ff9d43;" x="614.390425" xlink:href="#mfc4b8bac72" y="30.180952"/>
     <use style="fill:#ff9d43;stroke:#ff9d43;" x="637.217302" xlink:href="#mfc4b8bac72" y="30.180952"/>
     <use style="fill:#ff9d43;stroke:#ff9d43;" x="660.046901" xlink:href="#mfc4b8bac72" y="30.180952"/>
     <use style="fill:#ff9d43;stroke:#ff9d43;" x="682.876452" xlink:href="#mfc4b8bac72" y="30.180952"/>
     <use style="fill:#ff9d43;stroke:#ff9d43;" x="705.706432" xlink:href="#mfc4b8bac72" y="30.180952"/>
     <use style="fill:#ff9d43;stroke:#ff9d43;" x="728.53368" xlink:href="#mfc4b8bac72" y="30.180952"/>
     <use style="fill:#ff9d43;stroke:#ff9d43;" x="751.359114" xlink:href="#mfc4b8bac72" y="30.180952"/>
     <use style="fill:#ff9d43;stroke:#ff9d43;" x="774.187604" xlink:href="#mfc4b8bac72" y="30.180952"/>
     <use style="fill:#ff9d43;stroke:#ff9d43;" x="797.014272" xlink:href="#mfc4b8bac72" y="30.180952"/>
     <use style="fill:#ff9d43;stroke:#ff9d43;" x="819.841959" xlink:href="#mfc4b8bac72" y="30.180952"/>
     <use style="fill:#ff9d43;stroke:#ff9d43;" x="842.669118" xlink:href="#mfc4b8bac72" y="30.180952"/>
    </g>
   </g>
   <g id="line2d_6">
    <path clip-path="url(#pafe544f7c5)" d="M 86.22796 297.8 
L 111.328381 297.8 
L 134.937749 297.8 
L 156.790112 297.8 
L 180.460595 297.8 
L 203.021711 297.8 
L 226.258726 271.038095 
L 248.80594 163.990476 
L 271.834724 110.466667 
L 294.78642 83.704762 
L 317.520158 30.180952 
L 340.444736 30.180952 
L 363.298032 30.180952 
L 386.040105 30.180952 
L 408.869486 30.180952 
L 431.710314 30.180952 
L 454.564558 30.180952 
L 477.409491 30.180952 
L 500.251032 30.180952 
L 523.085168 30.180952 
L 545.906369 30.180952 
L 568.736622 30.180952 
L 591.566913 30.180952 
L 614.390425 30.180952 
L 637.217302 30.180952 
L 660.046901 30.180952 
L 682.876452 30.180952 
L 705.706432 30.180952 
L 728.53368 30.180952 
L 751.359114 30.180952 
L 774.187604 30.180952 
L 797.014272 30.180952 
L 819.841959 30.180952 
L 842.669118 30.180952 
" style="fill:none;stroke:#ffbb78;stroke-linecap:round;stroke-width:1.5;"/>
    <defs>
     <path d="M 0 3 
C 0.795609 3 1.55874 2.683901 2.12132 2.12132 
C 2.683901 1.55874 3 0.795609 3 0 
C 3 -0.795609 2.683901 -1.55874 2.12132 -2.12132 
C 1.55874 -2.683901 0.795609 -3 0 -3 
C -0.795609 -3 -1.55874 -2.683901 -2.12132 -2.12132 
C -2.683901 -1.55874 -3 -0.795609 -3 0 
C -3 0.795609 -2.683901 1.55874 -2.12132 2.12132 
C -1.55874 2.683901 -0.795609 3 0 3 
z
" id="mc94f044965" style="stroke:#ffbb78;"/>
    </defs>
    <g clip-path="url(#pafe544f7c5)">
     <use style="fill:#ffbb78;stroke:#ffbb78;" x="86.22796" xlink:href="#mc94f044965" y="297.8"/>
     <use style="fill:#ffbb78;stroke:#ffbb78;" x="111.328381" xlink:href="#mc94f044965" y="297.8"/>
     <use style="fill:#ffbb78;stroke:#ffbb78;" x="134.937749" xlink:href="#mc94f044965" y="297.8"/>
     <use style="fill:#ffbb78;stroke:#ffbb78;" x="156.790112" xlink:href="#mc94f044965" y="297.8"/>
     <use style="fill:#ffbb78;stroke:#ffbb78;" x="180.460595" xlink:href="#mc94f044965" y="297.8"/>
     <use style="fill:#ffbb78;stroke:#ffbb78;" x="203.021711" xlink:href="#mc94f044965" y="297.8"/>
     <use style="fill:#ffbb78;stroke:#ffbb78;" x="226.258726" xlink:href="#mc94f044965" y="271.038095"/>
     <use style="fill:#ffbb78;stroke:#ffbb78;" x="248.80594" xlink:href="#mc94f044965" y="163.990476"/>
     <use style="fill:#ffbb78;stroke:#ffbb78;" x="271.834724" xlink:href="#mc94f044965" y="110.466667"/>
     <use style="fill:#ffbb78;stroke:#ffbb78;" x="294.78642" xlink:href="#mc94f044965" y="83.704762"/>
     <use style="fill:#ffbb78;stroke:#ffbb78;" x="317.520158" xlink:href="#mc94f044965" y="30.180952"/>
     <use style="fill:#ffbb78;stroke:#ffbb78;" x="340.444736" xlink:href="#mc94f044965" y="30.180952"/>
     <use style="fill:#ffbb78;stroke:#ffbb78;" x="363.298032" xlink:href="#mc94f044965" y="30.180952"/>
     <use style="fill:#ffbb78;stroke:#ffbb78;" x="386.040105" xlink:href="#mc94f044965" y="30.180952"/>
     <use style="fill:#ffbb78;stroke:#ffbb78;" x="408.869486" xlink:href="#mc94f044965" y="30.180952"/>
     <use style="fill:#ffbb78;stroke:#ffbb78;" x="431.710314" xlink:href="#mc94f044965" y="30.180952"/>
     <use style="fill:#ffbb78;stroke:#ffbb78;" x="454.564558" xlink:href="#mc94f044965" y="30.180952"/>
     <use style="fill:#ffbb78;stroke:#ffbb78;" x="477.409491" xlink:href="#mc94f044965" y="30.180952"/>
     <use style="fill:#ffbb78;stroke:#ffbb78;" x="500.251032" xlink:href="#mc94f044965" y="30.180952"/>
     <use style="fill:#ffbb78;stroke:#ffbb78;" x="523.085168" xlink:href="#mc94f044965" y="30.180952"/>
     <use style="fill:#ffbb78;stroke:#ffbb78;" x="545.906369" xlink:href="#mc94f044965" y="30.180952"/>
     <use style="fill:#ffbb78;stroke:#ffbb78;" x="568.736622" xlink:href="#mc94f044965" y="30.180952"/>
     <use style="fill:#ffbb78;stroke:#ffbb78;" x="591.566913" xlink:href="#mc94f044965" y="30.180952"/>
     <use style="fill:#ffbb78;stroke:#ffbb78;" x="614.390425" xlink:href="#mc94f044965" y="30.180952"/>
     <use style="fill:#ffbb78;stroke:#ffbb78;" x="637.217302" xlink:href="#mc94f044965" y="30.180952"/>
     <use style="fill:#ffbb78;stroke:#ffbb78;" x="660.046901" xlink:href="#mc94f044965" y="30.180952"/>
     <use style="fill:#ffbb78;stroke:#ffbb78;" x="682.876452" xlink:href="#mc94f044965" y="30.180952"/>
     <use style="fill:#ffbb78;stroke:#ffbb78;" x="705.706432" xlink:href="#mc94f044965" y="30.180952"/>
     <use style="fill:#ffbb78;stroke:#ffbb78;" x="728.53368" xlink:href="#mc94f044965" y="30.180952"/>
     <use style="fill:#ffbb78;stroke:#ffbb78;" x="751.359114" xlink:href="#mc94f044965" y="30.180952"/>
     <use style="fill:#ffbb78;stroke:#ffbb78;" x="774.187604" xlink:href="#mc94f044965" y="30.180952"/>
     <use style="fill:#ffbb78;stroke:#ffbb78;" x="797.014272" xlink:href="#mc94f044965" y="30.180952"/>
     <use style="fill:#ffbb78;stroke:#ffbb78;" x="819.841959" xlink:href="#mc94f044965" y="30.180952"/>
     <use style="fill:#ffbb78;stroke:#ffbb78;" x="842.669118" xlink:href="#mc94f044965" y="30.180952"/>
    </g>
   </g>
   <g id="line2d_7">
    <path clip-path="url(#pafe544f7c5)" d="M 86.22796 297.8 
L 111.328381 297.8 
L 134.937749 297.8 
L 156.790112 297.8 
L 180.460595 297.8 
L 203.021711 297.8 
L 226.258726 297.8 
L 248.80594 271.038095 
L 271.834724 244.27619 
L 294.78642 30.180952 
L 317.520158 30.180952 
L 340.444736 83.704762 
L 363.298032 30.180952 
L 386.040105 30.180952 
L 408.869486 30.180952 
L 431.710314 30.180952 
L 454.564558 30.180952 
L 477.409491 30.180952 
L 500.251032 30.180952 
L 523.085168 30.180952 
L 545.906369 30.180952 
L 568.736622 30.180952 
L 591.566913 30.180952 
L 614.390425 30.180952 
L 637.217302 30.180952 
L 660.046901 30.180952 
L 682.876452 30.180952 
L 705.706432 30.180952 
L 728.53368 30.180952 
L 751.359114 30.180952 
L 774.187604 30.180952 
L 797.014272 30.180952 
L 819.841959 30.180952 
L 842.669118 30.180952 
" style="fill:none;stroke:#17becf;stroke-linecap:round;stroke-width:1.5;"/>
    <defs>
     <path d="M 0 3 
C 0.795609 3 1.55874 2.683901 2.12132 2.12132 
C 2.683901 1.55874 3 0.795609 3 0 
C 3 -0.795609 2.683901 -1.55874 2.12132 -2.12132 
C 1.55874 -2.683901 0.795609 -3 0 -3 
C -0.795609 -3 -1.55874 -2.683901 -2.12132 -2.12132 
C -2.683901 -1.55874 -3 -0.795609 -3 0 
C -3 0.795609 -2.683901 1.55874 -2.12132 2.12132 
C -1.55874 2.683901 -0.795609 3 0 3 
z
" id="m343be1cccf" style="stroke:#17becf;"/>
    </defs>
    <g clip-path="url(#pafe544f7c5)">
     <use style="fill:#17becf;stroke:#17becf;" x="86.22796" xlink:href="#m343be1cccf" y="297.8"/>
     <use style="fill:#17becf;stroke:#17becf;" x="111.328381" xlink:href="#m343be1cccf" y="297.8"/>
     <use style="fill:#17becf;stroke:#17becf;" x="134.937749" xlink:href="#m343be1cccf" y="297.8"/>
     <use style="fill:#17becf;stroke:#17becf;" x="156.790112" xlink:href="#m343be1cccf" y="297.8"/>
     <use style="fill:#17becf;stroke:#17becf;" x="180.460595" xlink:href="#m343be1cccf" y="297.8"/>
     <use style="fill:#17becf;stroke:#17becf;" x="203.021711" xlink:href="#m343be1cccf" y="297.8"/>
     <use style="fill:#17becf;stroke:#17becf;" x="226.258726" xlink:href="#m343be1cccf" y="297.8"/>
     <use style="fill:#17becf;stroke:#17becf;" x="248.80594" xlink:href="#m343be1cccf" y="271.038095"/>
     <use style="fill:#17becf;stroke:#17becf;" x="271.834724" xlink:href="#m343be1cccf" y="244.27619"/>
     <use style="fill:#17becf;stroke:#17becf;" x="294.78642" xlink:href="#m343be1cccf" y="30.180952"/>
     <use style="fill:#17becf;stroke:#17becf;" x="317.520158" xlink:href="#m343be1cccf" y="30.180952"/>
     <use style="fill:#17becf;stroke:#17becf;" x="340.444736" xlink:href="#m343be1cccf" y="83.704762"/>
     <use style="fill:#17becf;stroke:#17becf;" x="363.298032" xlink:href="#m343be1cccf" y="30.180952"/>
     <use style="fill:#17becf;stroke:#17becf;" x="386.040105" xlink:href="#m343be1cccf" y="30.180952"/>
     <use style="fill:#17becf;stroke:#17becf;" x="408.869486" xlink:href="#m343be1cccf" y="30.180952"/>
     <use style="fill:#17becf;stroke:#17becf;" x="431.710314" xlink:href="#m343be1cccf" y="30.180952"/>
     <use style="fill:#17becf;stroke:#17becf;" x="454.564558" xlink:href="#m343be1cccf" y="30.180952"/>
     <use style="fill:#17becf;stroke:#17becf;" x="477.409491" xlink:href="#m343be1cccf" y="30.180952"/>
     <use style="fill:#17becf;stroke:#17becf;" x="500.251032" xlink:href="#m343be1cccf" y="30.180952"/>
     <use style="fill:#17becf;stroke:#17becf;" x="523.085168" xlink:href="#m343be1cccf" y="30.180952"/>
     <use style="fill:#17becf;stroke:#17becf;" x="545.906369" xlink:href="#m343be1cccf" y="30.180952"/>
     <use style="fill:#17becf;stroke:#17becf;" x="568.736622" xlink:href="#m343be1cccf" y="30.180952"/>
     <use style="fill:#17becf;stroke:#17becf;" x="591.566913" xlink:href="#m343be1cccf" y="30.180952"/>
     <use style="fill:#17becf;stroke:#17becf;" x="614.390425" xlink:href="#m343be1cccf" y="30.180952"/>
     <use style="fill:#17becf;stroke:#17becf;" x="637.217302" xlink:href="#m343be1cccf" y="30.180952"/>
     <use style="fill:#17becf;stroke:#17becf;" x="660.046901" xlink:href="#m343be1cccf" y="30.180952"/>
     <use style="fill:#17becf;stroke:#17becf;" x="682.876452" xlink:href="#m343be1cccf" y="30.180952"/>
     <use style="fill:#17becf;stroke:#17becf;" x="705.706432" xlink:href="#m343be1cccf" y="30.180952"/>
     <use style="fill:#17becf;stroke:#17becf;" x="728.53368" xlink:href="#m343be1cccf" y="30.180952"/>
     <use style="fill:#17becf;stroke:#17becf;" x="751.359114" xlink:href="#m343be1cccf" y="30.180952"/>
     <use style="fill:#17becf;stroke:#17becf;" x="774.187604" xlink:href="#m343be1cccf" y="30.180952"/>
     <use style="fill:#17becf;stroke:#17becf;" x="797.014272" xlink:href="#m343be1cccf" y="30.180952"/>
     <use style="fill:#17becf;stroke:#17becf;" x="819.841959" xlink:href="#m343be1cccf" y="30.180952"/>
     <use style="fill:#17becf;stroke:#17becf;" x="842.669118" xlink:href="#m343be1cccf" y="30.180952"/>
    </g>
   </g>
   <g id="line2d_8">
    <path clip-path="url(#pafe544f7c5)" d="M 86.22796 297.8 
L 111.328381 297.8 
L 134.937749 297.8 
L 156.790112 297.8 
L 180.460595 297.8 
L 203.021711 297.8 
L 226.258726 297.8 
L 248.80594 271.038095 
L 271.834724 190.752381 
L 294.78642 110.466667 
L 317.520158 56.942857 
L 340.444736 56.942857 
L 363.298032 30.180952 
L 386.040105 30.180952 
L 408.869486 30.180952 
L 431.710314 30.180952 
L 454.564558 30.180952 
L 477.409491 30.180952 
L 500.251032 30.180952 
L 523.085168 30.180952 
L 545.906369 30.180952 
L 568.736622 30.180952 
L 591.566913 30.180952 
L 614.390425 30.180952 
L 637.217302 30.180952 
L 660.046901 30.180952 
L 682.876452 30.180952 
L 705.706432 30.180952 
L 728.53368 30.180952 
L 751.359114 30.180952 
L 774.187604 30.180952 
L 797.014272 30.180952 
L 819.841959 30.180952 
L 842.669118 30.180952 
" style="fill:none;stroke:#5accda;stroke-linecap:round;stroke-width:1.5;"/>
    <defs>
     <path d="M 0 3 
C 0.795609 3 1.55874 2.683901 2.12132 2.12132 
C 2.683901 1.55874 3 0.795609 3 0 
C 3 -0.795609 2.683901 -1.55874 2.12132 -2.12132 
C 1.55874 -2.683901 0.795609 -3 0 -3 
C -0.795609 -3 -1.55874 -2.683901 -2.12132 -2.12132 
C -2.683901 -1.55874 -3 -0.795609 -3 0 
C -3 0.795609 -2.683901 1.55874 -2.12132 2.12132 
C -1.55874 2.683901 -0.795609 3 0 3 
z
" id="mcfab77e257" style="stroke:#5accda;"/>
    </defs>
    <g clip-path="url(#pafe544f7c5)">
     <use style="fill:#5accda;stroke:#5accda;" x="86.22796" xlink:href="#mcfab77e257" y="297.8"/>
     <use style="fill:#5accda;stroke:#5accda;" x="111.328381" xlink:href="#mcfab77e257" y="297.8"/>
     <use style="fill:#5accda;stroke:#5accda;" x="134.937749" xlink:href="#mcfab77e257" y="297.8"/>
     <use style="fill:#5accda;stroke:#5accda;" x="156.790112" xlink:href="#mcfab77e257" y="297.8"/>
     <use style="fill:#5accda;stroke:#5accda;" x="180.460595" xlink:href="#mcfab77e257" y="297.8"/>
     <use style="fill:#5accda;stroke:#5accda;" x="203.021711" xlink:href="#mcfab77e257" y="297.8"/>
     <use style="fill:#5accda;stroke:#5accda;" x="226.258726" xlink:href="#mcfab77e257" y="297.8"/>
     <use style="fill:#5accda;stroke:#5accda;" x="248.80594" xlink:href="#mcfab77e257" y="271.038095"/>
     <use style="fill:#5accda;stroke:#5accda;" x="271.834724" xlink:href="#mcfab77e257" y="190.752381"/>
     <use style="fill:#5accda;stroke:#5accda;" x="294.78642" xlink:href="#mcfab77e257" y="110.466667"/>
     <use style="fill:#5accda;stroke:#5accda;" x="317.520158" xlink:href="#mcfab77e257" y="56.942857"/>
     <use style="fill:#5accda;stroke:#5accda;" x="340.444736" xlink:href="#mcfab77e257" y="56.942857"/>
     <use style="fill:#5accda;stroke:#5accda;" x="363.298032" xlink:href="#mcfab77e257" y="30.180952"/>
     <use style="fill:#5accda;stroke:#5accda;" x="386.040105" xlink:href="#mcfab77e257" y="30.180952"/>
     <use style="fill:#5accda;stroke:#5accda;" x="408.869486" xlink:href="#mcfab77e257" y="30.180952"/>
     <use style="fill:#5accda;stroke:#5accda;" x="431.710314" xlink:href="#mcfab77e257" y="30.180952"/>
     <use style="fill:#5accda;stroke:#5accda;" x="454.564558" xlink:href="#mcfab77e257" y="30.180952"/>
     <use style="fill:#5accda;stroke:#5accda;" x="477.409491" xlink:href="#mcfab77e257" y="30.180952"/>
     <use style="fill:#5accda;stroke:#5accda;" x="500.251032" xlink:href="#mcfab77e257" y="30.180952"/>
     <use style="fill:#5accda;stroke:#5accda;" x="523.085168" xlink:href="#mcfab77e257" y="30.180952"/>
     <use style="fill:#5accda;stroke:#5accda;" x="545.906369" xlink:href="#mcfab77e257" y="30.180952"/>
     <use style="fill:#5accda;stroke:#5accda;" x="568.736622" xlink:href="#mcfab77e257" y="30.180952"/>
     <use style="fill:#5accda;stroke:#5accda;" x="591.566913" xlink:href="#mcfab77e257" y="30.180952"/>
     <use style="fill:#5accda;stroke:#5accda;" x="614.390425" xlink:href="#mcfab77e257" y="30.180952"/>
     <use style="fill:#5accda;stroke:#5accda;" x="637.217302" xlink:href="#mcfab77e257" y="30.180952"/>
     <use style="fill:#5accda;stroke:#5accda;" x="660.046901" xlink:href="#mcfab77e257" y="30.180952"/>
     <use style="fill:#5accda;stroke:#5accda;" x="682.876452" xlink:href="#mcfab77e257" y="30.180952"/>
     <use style="fill:#5accda;stroke:#5accda;" x="705.706432" xlink:href="#mcfab77e257" y="30.180952"/>
     <use style="fill:#5accda;stroke:#5accda;" x="728.53368" xlink:href="#mcfab77e257" y="30.180952"/>
     <use style="fill:#5accda;stroke:#5accda;" x="751.359114" xlink:href="#mcfab77e257" y="30.180952"/>
     <use style="fill:#5accda;stroke:#5accda;" x="774.187604" xlink:href="#mcfab77e257" y="30.180952"/>
     <use style="fill:#5accda;stroke:#5accda;" x="797.014272" xlink:href="#mcfab77e257" y="30.180952"/>
     <use style="fill:#5accda;stroke:#5accda;" x="819.841959" xlink:href="#mcfab77e257" y="30.180952"/>
     <use style="fill:#5accda;stroke:#5accda;" x="842.669118" xlink:href="#mcfab77e257" y="30.180952"/>
    </g>
   </g>
   <g id="line2d_9">
    <path clip-path="url(#pafe544f7c5)" d="M 86.22796 297.8 
L 111.328381 297.8 
L 134.937749 297.8 
L 156.790112 297.8 
L 180.460595 297.8 
L 203.021711 297.8 
L 226.258726 244.27619 
L 248.80594 297.8 
L 271.834724 190.752381 
L 294.78642 137.228571 
L 317.520158 137.228571 
L 340.444736 30.180952 
L 363.298032 30.180952 
L 386.040105 30.180952 
L 408.869486 30.180952 
L 431.710314 30.180952 
L 454.564558 30.180952 
L 477.409491 30.180952 
L 500.251032 30.180952 
L 523.085168 30.180952 
L 545.906369 30.180952 
L 568.736622 30.180952 
L 591.566913 30.180952 
L 614.390425 30.180952 
L 637.217302 30.180952 
L 660.046901 30.180952 
L 682.876452 30.180952 
L 705.706432 30.180952 
L 728.53368 30.180952 
L 751.359114 30.180952 
L 774.187604 30.180952 
L 797.014272 30.180952 
L 819.841959 30.180952 
L 842.669118 30.180952 
" style="fill:none;stroke:#9edae5;stroke-linecap:round;stroke-width:1.5;"/>
    <defs>
     <path d="M 0 3 
C 0.795609 3 1.55874 2.683901 2.12132 2.12132 
C 2.683901 1.55874 3 0.795609 3 0 
C 3 -0.795609 2.683901 -1.55874 2.12132 -2.12132 
C 1.55874 -2.683901 0.795609 -3 0 -3 
C -0.795609 -3 -1.55874 -2.683901 -2.12132 -2.12132 
C -2.683901 -1.55874 -3 -0.795609 -3 0 
C -3 0.795609 -2.683901 1.55874 -2.12132 2.12132 
C -1.55874 2.683901 -0.795609 3 0 3 
z
" id="mc077ad7d18" style="stroke:#9edae5;"/>
    </defs>
    <g clip-path="url(#pafe544f7c5)">
     <use style="fill:#9edae5;stroke:#9edae5;" x="86.22796" xlink:href="#mc077ad7d18" y="297.8"/>
     <use style="fill:#9edae5;stroke:#9edae5;" x="111.328381" xlink:href="#mc077ad7d18" y="297.8"/>
     <use style="fill:#9edae5;stroke:#9edae5;" x="134.937749" xlink:href="#mc077ad7d18" y="297.8"/>
     <use style="fill:#9edae5;stroke:#9edae5;" x="156.790112" xlink:href="#mc077ad7d18" y="297.8"/>
     <use style="fill:#9edae5;stroke:#9edae5;" x="180.460595" xlink:href="#mc077ad7d18" y="297.8"/>
     <use style="fill:#9edae5;stroke:#9edae5;" x="203.021711" xlink:href="#mc077ad7d18" y="297.8"/>
     <use style="fill:#9edae5;stroke:#9edae5;" x="226.258726" xlink:href="#mc077ad7d18" y="244.27619"/>
     <use style="fill:#9edae5;stroke:#9edae5;" x="248.80594" xlink:href="#mc077ad7d18" y="297.8"/>
     <use style="fill:#9edae5;stroke:#9edae5;" x="271.834724" xlink:href="#mc077ad7d18" y="190.752381"/>
     <use style="fill:#9edae5;stroke:#9edae5;" x="294.78642" xlink:href="#mc077ad7d18" y="137.228571"/>
     <use style="fill:#9edae5;stroke:#9edae5;" x="317.520158" xlink:href="#mc077ad7d18" y="137.228571"/>
     <use style="fill:#9edae5;stroke:#9edae5;" x="340.444736" xlink:href="#mc077ad7d18" y="30.180952"/>
     <use style="fill:#9edae5;stroke:#9edae5;" x="363.298032" xlink:href="#mc077ad7d18" y="30.180952"/>
     <use style="fill:#9edae5;stroke:#9edae5;" x="386.040105" xlink:href="#mc077ad7d18" y="30.180952"/>
     <use style="fill:#9edae5;stroke:#9edae5;" x="408.869486" xlink:href="#mc077ad7d18" y="30.180952"/>
     <use style="fill:#9edae5;stroke:#9edae5;" x="431.710314" xlink:href="#mc077ad7d18" y="30.180952"/>
     <use style="fill:#9edae5;stroke:#9edae5;" x="454.564558" xlink:href="#mc077ad7d18" y="30.180952"/>
     <use style="fill:#9edae5;stroke:#9edae5;" x="477.409491" xlink:href="#mc077ad7d18" y="30.180952"/>
     <use style="fill:#9edae5;stroke:#9edae5;" x="500.251032" xlink:href="#mc077ad7d18" y="30.180952"/>
     <use style="fill:#9edae5;stroke:#9edae5;" x="523.085168" xlink:href="#mc077ad7d18" y="30.180952"/>
     <use style="fill:#9edae5;stroke:#9edae5;" x="545.906369" xlink:href="#mc077ad7d18" y="30.180952"/>
     <use style="fill:#9edae5;stroke:#9edae5;" x="568.736622" xlink:href="#mc077ad7d18" y="30.180952"/>
     <use style="fill:#9edae5;stroke:#9edae5;" x="591.566913" xlink:href="#mc077ad7d18" y="30.180952"/>
     <use style="fill:#9edae5;stroke:#9edae5;" x="614.390425" xlink:href="#mc077ad7d18" y="30.180952"/>
     <use style="fill:#9edae5;stroke:#9edae5;" x="637.217302" xlink:href="#mc077ad7d18" y="30.180952"/>
     <use style="fill:#9edae5;stroke:#9edae5;" x="660.046901" xlink:href="#mc077ad7d18" y="30.180952"/>
     <use style="fill:#9edae5;stroke:#9edae5;" x="682.876452" xlink:href="#mc077ad7d18" y="30.180952"/>
     <use style="fill:#9edae5;stroke:#9edae5;" x="705.706432" xlink:href="#mc077ad7d18" y="30.180952"/>
     <use style="fill:#9edae5;stroke:#9edae5;" x="728.53368" xlink:href="#mc077ad7d18" y="30.180952"/>
     <use style="fill:#9edae5;stroke:#9edae5;" x="751.359114" xlink:href="#mc077ad7d18" y="30.180952"/>
     <use style="fill:#9edae5;stroke:#9edae5;" x="774.187604" xlink:href="#mc077ad7d18" y="30.180952"/>
     <use style="fill:#9edae5;stroke:#9edae5;" x="797.014272" xlink:href="#mc077ad7d18" y="30.180952"/>
     <use style="fill:#9edae5;stroke:#9edae5;" x="819.841959" xlink:href="#mc077ad7d18" y="30.180952"/>
     <use style="fill:#9edae5;stroke:#9edae5;" x="842.669118" xlink:href="#mc077ad7d18" y="30.180952"/>
    </g>
   </g>
   <g id="line2d_10">
    <path clip-path="url(#pafe544f7c5)" d="M 86.22796 297.8 
L 111.328381 297.8 
L 134.937749 297.8 
L 156.790112 297.8 
L 180.460595 297.8 
L 203.021711 297.8 
L 226.258726 271.038095 
L 248.80594 217.514286 
L 271.834724 137.228571 
L 294.78642 56.942857 
L 317.520158 83.704762 
L 340.444736 30.180952 
L 363.298032 30.180952 
L 386.040105 30.180952 
L 408.869486 30.180952 
L 431.710314 30.180952 
L 454.564558 30.180952 
L 477.409491 30.180952 
L 500.251032 30.180952 
L 523.085168 30.180952 
L 545.906369 30.180952 
L 568.736622 30.180952 
L 591.566913 30.180952 
L 614.390425 30.180952 
L 637.217302 30.180952 
L 660.046901 30.180952 
L 682.876452 30.180952 
L 705.706432 30.180952 
L 728.53368 30.180952 
L 751.359114 30.180952 
L 774.187604 30.180952 
L 797.014272 30.180952 
L 819.841959 30.180952 
L 842.669118 30.180952 
" style="fill:none;stroke:#1a1a1a;stroke-linecap:round;stroke-width:1.5;"/>
    <defs>
     <path d="M 0 3 
C 0.795609 3 1.55874 2.683901 2.12132 2.12132 
C 2.683901 1.55874 3 0.795609 3 0 
C 3 -0.795609 2.683901 -1.55874 2.12132 -2.12132 
C 1.55874 -2.683901 0.795609 -3 0 -3 
C -0.795609 -3 -1.55874 -2.683901 -2.12132 -2.12132 
C -2.683901 -1.55874 -3 -0.795609 -3 0 
C -3 0.795609 -2.683901 1.55874 -2.12132 2.12132 
C -1.55874 2.683901 -0.795609 3 0 3 
z
" id="m8291cd3fb0" style="stroke:#1a1a1a;"/>
    </defs>
    <g clip-path="url(#pafe544f7c5)">
     <use style="fill:#1a1a1a;stroke:#1a1a1a;" x="86.22796" xlink:href="#m8291cd3fb0" y="297.8"/>
     <use style="fill:#1a1a1a;stroke:#1a1a1a;" x="111.328381" xlink:href="#m8291cd3fb0" y="297.8"/>
     <use style="fill:#1a1a1a;stroke:#1a1a1a;" x="134.937749" xlink:href="#m8291cd3fb0" y="297.8"/>
     <use style="fill:#1a1a1a;stroke:#1a1a1a;" x="156.790112" xlink:href="#m8291cd3fb0" y="297.8"/>
     <use style="fill:#1a1a1a;stroke:#1a1a1a;" x="180.460595" xlink:href="#m8291cd3fb0" y="297.8"/>
     <use style="fill:#1a1a1a;stroke:#1a1a1a;" x="203.021711" xlink:href="#m8291cd3fb0" y="297.8"/>
     <use style="fill:#1a1a1a;stroke:#1a1a1a;" x="226.258726" xlink:href="#m8291cd3fb0" y="271.038095"/>
     <use style="fill:#1a1a1a;stroke:#1a1a1a;" x="248.80594" xlink:href="#m8291cd3fb0" y="217.514286"/>
     <use style="fill:#1a1a1a;stroke:#1a1a1a;" x="271.834724" xlink:href="#m8291cd3fb0" y="137.228571"/>
     <use style="fill:#1a1a1a;stroke:#1a1a1a;" x="294.78642" xlink:href="#m8291cd3fb0" y="56.942857"/>
     <use style="fill:#1a1a1a;stroke:#1a1a1a;" x="317.520158" xlink:href="#m8291cd3fb0" y="83.704762"/>
     <use style="fill:#1a1a1a;stroke:#1a1a1a;" x="340.444736" xlink:href="#m8291cd3fb0" y="30.180952"/>
     <use style="fill:#1a1a1a;stroke:#1a1a1a;" x="363.298032" xlink:href="#m8291cd3fb0" y="30.180952"/>
     <use style="fill:#1a1a1a;stroke:#1a1a1a;" x="386.040105" xlink:href="#m8291cd3fb0" y="30.180952"/>
     <use style="fill:#1a1a1a;stroke:#1a1a1a;" x="408.869486" xlink:href="#m8291cd3fb0" y="30.180952"/>
     <use style="fill:#1a1a1a;stroke:#1a1a1a;" x="431.710314" xlink:href="#m8291cd3fb0" y="30.180952"/>
     <use style="fill:#1a1a1a;stroke:#1a1a1a;" x="454.564558" xlink:href="#m8291cd3fb0" y="30.180952"/>
     <use style="fill:#1a1a1a;stroke:#1a1a1a;" x="477.409491" xlink:href="#m8291cd3fb0" y="30.180952"/>
     <use style="fill:#1a1a1a;stroke:#1a1a1a;" x="500.251032" xlink:href="#m8291cd3fb0" y="30.180952"/>
     <use style="fill:#1a1a1a;stroke:#1a1a1a;" x="523.085168" xlink:href="#m8291cd3fb0" y="30.180952"/>
     <use style="fill:#1a1a1a;stroke:#1a1a1a;" x="545.906369" xlink:href="#m8291cd3fb0" y="30.180952"/>
     <use style="fill:#1a1a1a;stroke:#1a1a1a;" x="568.736622" xlink:href="#m8291cd3fb0" y="30.180952"/>
     <use style="fill:#1a1a1a;stroke:#1a1a1a;" x="591.566913" xlink:href="#m8291cd3fb0" y="30.180952"/>
     <use style="fill:#1a1a1a;stroke:#1a1a1a;" x="614.390425" xlink:href="#m8291cd3fb0" y="30.180952"/>
     <use style="fill:#1a1a1a;stroke:#1a1a1a;" x="637.217302" xlink:href="#m8291cd3fb0" y="30.180952"/>
     <use style="fill:#1a1a1a;stroke:#1a1a1a;" x="660.046901" xlink:href="#m8291cd3fb0" y="30.180952"/>
     <use style="fill:#1a1a1a;stroke:#1a1a1a;" x="682.876452" xlink:href="#m8291cd3fb0" y="30.180952"/>
     <use style="fill:#1a1a1a;stroke:#1a1a1a;" x="705.706432" xlink:href="#m8291cd3fb0" y="30.180952"/>
     <use style="fill:#1a1a1a;stroke:#1a1a1a;" x="728.53368" xlink:href="#m8291cd3fb0" y="30.180952"/>
     <use style="fill:#1a1a1a;stroke:#1a1a1a;" x="751.359114" xlink:href="#m8291cd3fb0" y="30.180952"/>
     <use style="fill:#1a1a1a;stroke:#1a1a1a;" x="774.187604" xlink:href="#m8291cd3fb0" y="30.180952"/>
     <use style="fill:#1a1a1a;stroke:#1a1a1a;" x="797.014272" xlink:href="#m8291cd3fb0" y="30.180952"/>
     <use style="fill:#1a1a1a;stroke:#1a1a1a;" x="819.841959" xlink:href="#m8291cd3fb0" y="30.180952"/>
     <use style="fill:#1a1a1a;stroke:#1a1a1a;" x="842.669118" xlink:href="#m8291cd3fb0" y="30.180952"/>
    </g>
   </g>
   <g id="patch_3">
    <path d="M 73.675 297.8 
L 73.675 16.8 
" style="fill:none;stroke:#262626;stroke-linecap:square;stroke-linejoin:miter;stroke-width:1.25;"/>
   </g>
   <g id="patch_4">
    <path d="M 847.2 297.8 
L 847.2 16.8 
" style="fill:none;stroke:#262626;stroke-linecap:square;stroke-linejoin:miter;stroke-width:1.25;"/>
   </g>
   <g id="patch_5">
    <path d="M 73.675 297.8 
L 847.2 297.8 
" style="fill:none;stroke:#262626;stroke-linecap:square;stroke-linejoin:miter;stroke-width:1.25;"/>
   </g>
   <g id="patch_6">
    <path d="M 73.675 16.8 
L 847.2 16.8 
" style="fill:none;stroke:#262626;stroke-linecap:square;stroke-linejoin:miter;stroke-width:1.25;"/>
   </g>
  </g>
 </g>
 <defs>
  <clipPath id="pafe544f7c5">
   <rect height="281" width="773.525" x="73.675" y="16.8"/>
  </clipPath>
 </defs>
</svg>
